{
.appVersion = "3148";
.formatVersion = 3;
DisplayStrings = (
ABCDEFGHIJKLMNOPQRSTUVWXYZ
);
customParameters = (
{
name = vendorID;
value = XXXX;
},
{
name = panose;
value = (
0,
0,
0,
0,
0,
0,
0,
0,
0,
0
);
},
{
name = unicodeRanges;
value = (
0,
1,
2
);
},
{
name = codePageRanges;
value = (
"1252",
"1250"
);
},
{
name = fsType;
value = (
);
},
{
name = glyphOrder;
value = (
.notdef,
.null,
LF,
controlCR,
space,
A,
B,
C,
D,
E,
F,
G,
H,
I,
J,
K,
L,
M,
N,
O,
P,
Q,
R,
S,
T,
U,
V,
W,
X,
Y,
Z,
nonbreakingspace,
softhyphen
);
},
{
name = "Disable Subroutines";
value = 1;
}
);
date = "2022-03-08 02:06:30 +0000";
familyName = Osmosis;
fontMaster = (
{
customParameters = (
{
name = typoAscender;
value = 868;
},
{
name = typoDescender;
value = -200;
},
{
name = typoLineGap;
value = 0;
},
{
name = winAscent;
value = 1162;
},
{
name = winDescent;
value = 99;
},
{
name = hheaAscender;
value = 868;
},
{
name = hheaDescender;
value = -200;
},
{
name = strikeoutPosition;
value = 258;
},
{
name = strikeoutSize;
value = 49;
}
);
id = m01;
metricValues = (
{
pos = 868;
},
{
pos = 717;
},
{
pos = 700;
},
{
},
{
pos = -200;
},
{
}
);
name = Regular;
}
);
glyphs = (
{
glyphname = .notdef;
layers = (
{
layerId = m01;
shapes = (
{
closed = 1;
nodes = (
(50,700,l),
(50,0,l),
(477,0,l),
(477,700,l)
);
},
{
closed = 1;
nodes = (
(78,680,l),
(449,680,l),
(263,371,l)
);
},
{
closed = 1;
nodes = (
(251,350,l),
(71,49,l),
(71,650,l)
);
},
{
closed = 1;
nodes = (
(264,329,l),
(449,21,l),
(79,21,l)
);
},
{
closed = 1;
nodes = (
(276,350,l),
(457,652,l),
(457,47,l)
);
}
);
width = 527;
}
);
note = ".notdef";
},
{
glyphname = A;
lastChange = "2022-12-26 01:22:05 +0000";
layers = (
{
layerId = m01;
shapes = (
{
closed = 1;
nodes = (
(360,65,o),
(363,68,o),
(366,71,cs),
(384,93,o),
(403,115,o),
(421,138,cs),
(511,253,l),
(512,255,o),
(513,258,o),
(512,260,cs),
(475,348,l),
(473,351,o),
(475,353,o),
(481,354,cs),
(487,355,o),
(493,357,o),
(499,358,c),
(498,359,o),
(498,360,o),
(498,361,c),
(473,358,l),
(468,367,o),
(465,378,o),
(462,388,cs),
(459,400,o),
(452,412,o),
(442,420,cs),
(434,426,o),
(423,426,o),
(415,419,cs),
(410,415,o),
(405,410,o),
(402,405,cs),
(394,390,o),
(388,376,o),
(382,363,c),
(367,361,o),
(375,352,o),
(365,346,c),
(365,362,o),
(365,376,o),
(366,390,cs),
(368,411,o),
(372,432,o),
(374,453,cs),
(374,462,o),
(371,470,o),
(369,480,c),
(382,477,o),
(395,475,o),
(407,473,cs),
(420,471,o),
(432,468,o),
(445,466,cs),
(449,465,o),
(452,466,o),
(456,466,c),
(455,468,o),
(453,469,o),
(451,470,c),
(360,497,ls),
(346,501,o),
(343,509,o),
(337,518,c),
(354,512,o),
(369,507,o),
(384,502,cs),
(428,487,ls),
(443,481,o),
(458,476,o),
(473,472,cs),
(488,467,o),
(503,464,o),
(518,459,c),
(520,461,l),
(500,468,o),
(481,474,o),
(461,480,cs),
(450,484,o),
(441,489,o),
(429,493,cs),
(398,504,o),
(366,514,o),
(334,525,c),
(327,526,l),
(329,529,l),
(334,530,l),
(326,536,o),
(319,542,o),
(312,549,cs),
(308,552,o),
(306,554,o),
(299,550,c),
(295,549,o),
(290,549,o),
(287,550,cs),
(265,559,l),
(265,560,o),
(264,560,o),
(264,561,c),
(238,566,o),
(214,574,o),
(190,585,c),
(180,588,o),
(171,591,o),
(162,594,cs),
(144,600,l),
(139,586,o),
(132,574,o),
(122,562,c),
(122,560,ls),
(121,556,o),
(119,553,o),
(117,550,cs),
(97,520,o),
(69,492,o),
(42,464,cs),
(29,452,o),
(13,439,o),
(6,426,c),
(1,412,o),
(0,397,o),
(5,384,cs),
(9,370,o),
(13,358,o),
(9,344,cs),
(8,339,o),
(8,334,o),
(10,330,cs),
(15,320,o),
(17,308,o),
(14,297,c),
(37,313,o),
(56,334,o),
(87,344,c),
(90,341,l),
(12,286,l),
(11,288,l),
(10,285,o),
(10,283,o),
(11,281,c),
(11,280,o),
(12,279,o),
(12,278,c),
(29,292,o),
(48,303,o),
(69,310,c),
(73,307,l),
(16,269,l),
(18,261,l),
(30,268,o),
(43,274,o),
(56,278,c),
(60,275,l),
(17,248,l),
(16,244,o),
(15,240,o),
(13,236,c),
(12,235,o),
(12,234,o),
(11,233,c),
(46,248,l),
(49,245,l),
(15,224,l),
(17,222,o),
(19,220,o),
(21,219,cs),
(43,209,o),
(64,198,o),
(85,187,cs),
(103,178,o),
(119,168,o),
(137,158,cs),
(153,150,o),
(169,141,o),
(187,134,cs),
(215,121,o),
(244,110,o),
(273,98,cs),
(280,95,o),
(286,97,o),
(286,102,c),
(288,113,o),
(290,124,o),
(290,135,cs),
(290,142,o),
(290,150,o),
(289,157,c),
(286,157,l),
(275,151,l),
(272,152,l),
(274,155,o),
(275,159,o),
(278,161,cs),
(289,168,o),
(290,174,o),
(285,182,c),
(269,174,l),
(267,190,o),
(264,203,o),
(262,217,c),
(283,217,l),
(280,236,o),
(278,255,o),
(276,273,c),
(278,274,o),
(281,274,o),
(284,274,c),
(286,266,o),
(287,257,o),
(289,249,c),
(290,250,o),
(291,252,o),
(291,254,cs),
(288,274,l),
(305,274,o),
(323,274,o),
(340,274,cs),
(365,274,l),
(369,257,o),
(370,240,o),
(369,223,cs),
(367,205,o),
(366,186,o),
(364,167,cs),
(362,142,o),
(361,117,o),
(359,92,cs),
(356,64,l)
);
},
{
closed = 1;
nodes = (
(124,249,l),
(145,261,l),
(147,260,l),
(128,246,l)
);
},
{
closed = 1;
nodes = (
(27,324,l),
(111,384,l),
(116,379,l),
(33,319,l)
);
},
{
closed = 1;
nodes = (
(49,356,l),
(91,382,l),
(95,379,l),
(54,352,l)
);
},
{
closed = 1;
nodes = (
(86,401,o),
(106,413,o),
(118,409,c),
(139,419,l),
(142,416,l),
(106,391,l),
(102,393,l),
(118,409,l),
(81,387,l)
);
},
{
closed = 1;
nodes = (
(266,231,o),
(259,229,o),
(258,235,cs),
(256,247,o),
(254,260,o),
(251,273,c),
(260,273,ls),
(267,272,o),
(271,269,o),
(272,264,cs),
(273,254,o),
(276,245,o),
(277,236,cs),
(277,234,o),
(273,232,o),
(271,232,cs)
);
},
{
closed = 1;
nodes = (
(109,429,l),
(158,453,l),
(162,448,l),
(154,443,o),
(152,431,o),
(134,435,cs),
(128,436,o),
(120,428,o),
(113,424,c)
);
},
{
closed = 1;
nodes = (
(266,348,l),
(269,349,l),
(277,307,l),
(272,307,l)
);
},
{
closed = 1;
nodes = (
(173,476,l),
(205,495,l),
(208,492,l),
(179,472,l)
);
},
{
closed = 1;
nodes = (
(280,330,o),
(275,352,o),
(268,375,cs),
(261,398,o),
(256,423,o),
(255,448,cs),
(255,451,o),
(255,454,o),
(256,457,c),
(258,456,o),
(261,455,o),
(262,452,c),
(285,417,o),
(306,381,o),
(331,346,cs),
(339,335,o),
(347,322,o),
(353,309,c),
(337,308,o),
(322,307,o),
(306,307,cs),
(283,307,l)
);
}
);
width = 520;
}
);
note = A;
unicode = (65,97,192,193,194,195,196,197,224,225,226,227,228,229);
},
{
glyphname = B;
lastChange = "2022-12-26 01:22:07 +0000";
layers = (
{
layerId = m01;
shapes = (
{
closed = 1;
nodes = (
(-41,19,l),
(-29,36,o),
(-18,54,o),
(-5,70,cs),
(23,104,o),
(50,137,o),
(78,170,cs),
(98,192,o),
(118,213,o),
(138,234,cs),
(148,244,o),
(150,242,o),
(151,227,c),
(144,220,o),
(138,212,o),
(131,205,cs),
(120,193,o),
(108,182,o),
(96,170,cs),
(79,151,o),
(61,133,o),
(43,115,cs),
(35,106,o),
(28,96,o),
(20,87,c),
(56,116,ls),
(82,140,o),
(108,166,o),
(135,190,cs),
(153,206,o),
(153,206,o),
(161,186,cs),
(167,173,ls),
(176,151,o),
(186,130,o),
(195,109,c),
(197,112,l),
(196,116,o),
(194,121,o),
(192,126,cs),
(162,200,l),
(161,205,o),
(161,209,o),
(162,214,c),
(171,222,o),
(180,230,o),
(190,238,c),
(191,235,o),
(191,232,o),
(191,230,c),
(195,233,o),
(199,237,o),
(202,236,cs),
(212,233,o),
(222,228,o),
(232,225,cs),
(249,220,o),
(267,216,o),
(285,213,cs),
(303,209,o),
(322,207,o),
(340,204,c),
(340,205,o),
(340,206,o),
(341,207,c),
(226,239,l),
(227,246,l),
(202,246,l),
(203,250,l),
(205,253,o),
(207,255,o),
(210,257,c),
(279,320,ls),
(288,328,o),
(297,335,o),
(307,341,c),
(342,356,o),
(380,366,o),
(419,370,cs),
(436,372,o),
(453,371,o),
(471,372,c),
(470,369,l),
(458,362,l),
(458,356,l),
(463,356,o),
(469,356,o),
(475,355,c),
(512,340,ls),
(546,328,o),
(578,314,o),
(607,292,c),
(609,289,o),
(611,286,o),
(612,283,c),
(584,259,l),
(570,251,l),
(564,246,o),
(558,242,o),
(552,238,c),
(543,234,o),
(534,232,o),
(525,229,c),
(524,229,o),
(522,228,o),
(521,227,c),
(513,223,o),
(504,219,o),
(496,216,cs),
(490,214,o),
(483,212,o),
(476,212,c),
(455,209,o),
(433,207,o),
(411,206,cs),
(369,203,l),
(384,196,o),
(386,192,o),
(380,172,cs),
(378,165,o),
(374,158,o),
(371,151,cs),
(368,145,o),
(366,139,o),
(365,132,c),
(368,110,o),
(372,88,o),
(375,66,cs),
(377,56,o),
(383,59,o),
(388,64,cs),
(392,68,o),
(395,73,o),
(397,78,cs),
(407,97,o),
(417,116,o),
(427,136,cs),
(429,140,o),
(431,144,o),
(431,149,c),
(429,153,o),
(426,156,o),
(423,157,cs),
(421,158,o),
(418,156,o),
(417,158,c),
(407,169,o),
(397,181,o),
(388,192,c),
(388,193,o),
(389,194,o),
(389,196,c),
(404,185,l),
(404,186,o),
(405,187,o),
(405,188,cs),
(405,190,o),
(404,192,o),
(404,195,c),
(427,192,o),
(450,190,o),
(472,188,cs),
(490,186,o),
(508,186,o),
(525,186,cs),
(547,188,o),
(569,191,o),
(590,196,c),
(606,202,o),
(621,209,o),
(635,218,cs),
(643,222,o),
(646,231,o),
(646,243,cs),
(645,269,o),
(646,296,o),
(645,322,cs),
(644,346,o),
(647,372,o),
(637,390,cs),
(634,396,o),
(631,403,o),
(628,408,cs),
(625,412,o),
(623,415,o),
(620,417,c),
(618,422,o),
(611,421,o),
(611,425,c),
(608,437,o),
(617,447,o),
(622,455,c),
(620,432,l),
(622,433,l),
(625,440,l),
(626,436,l),
(639,447,l),
(640,458,o),
(642,473,o),
(644,488,c),
(647,488,l),
(676,473,o),
(706,458,o),
(735,443,cs),
(822,395,ls),
(827,392,o),
(833,390,o),
(839,389,cs),
(843,388,o),
(848,390,o),
(850,394,cs),
(852,399,o),
(853,405,o),
(852,410,cs),
(850,416,o),
(848,422,o),
(845,427,cs),
(844,429,o),
(841,430,o),
(839,430,c),
(815,422,o),
(789,427,o),
(770,443,cs),
(766,446,o),
(765,456,o),
(762,460,cs),
(755,470,o),
(746,478,o),
(739,487,cs),
(738,489,o),
(737,490,o),
(736,491,c),
(741,499,o),
(749,506,o),
(750,512,cs),
(751,519,o),
(746,525,o),
(744,531,cs),
(743,533,o),
(741,534,o),
(740,535,cs),
(732,545,o),
(720,541,o),
(709,540,cs),
(705,539,o),
(701,541,o),
(698,544,c),
(689,561,o),
(680,580,o),
(671,598,c),
(663,607,o),
(655,617,o),
(648,627,c),
(644,631,o),
(642,636,o),
(639,625,c),
(631,626,o),
(623,628,o),
(615,627,cs),
(588,621,o),
(561,602,o),
(535,580,cs),
(498,549,o),
(462,516,o),
(425,484,cs),
(359,427,o),
(294,370,o),
(228,314,cs),
(208,297,o),
(188,282,o),
(168,268,c),
(165,265,o),
(162,265,o),
(158,265,c),
(142,269,o),
(127,274,o),
(111,278,c),
(111,272,l),
(121,268,o),
(131,264,o),
(141,259,cs),
(143,258,o),
(144,255,o),
(146,253,c),
(144,250,o),
(142,247,o),
(139,245,c),
(123,230,o),
(106,217,o),
(90,201,cs),
(53,164,o),
(22,116,o),
(-11,71,cs),
(-24,54,o),
(-36,36,o),
(-47,19,c)
);
},
{
closed = 1;
nodes = (
(153,245,l),
(165,249,l),
(166,245,l),
(153,230,l)
);
},
{
closed = 1;
nodes = (
(196,287,o),
(199,288,o),
(204,279,c),
(180,268,l)
);
},
{
closed = 1;
nodes = (
(215,271,l),
(240,295,l),
(240,294,o),
(241,293,o),
(241,291,c),
(216,269,l)
);
},
{
closed = 1;
nodes = (
(246,302,l),
(281,331,l),
(281,330,o),
(282,329,o),
(282,328,c),
(247,297,l)
);
},
{
closed = 1;
nodes = (
(298,349,l),
(326,376,o),
(354,405,o),
(383,431,cs),
(392,439,o),
(401,449,o),
(412,448,cs),
(417,447,o),
(424,454,o),
(429,456,cs),
(439,459,o),
(450,461,o),
(460,462,cs),
(468,462,o),
(476,460,o),
(484,457,c),
(495,455,o),
(505,453,o),
(516,450,c),
(518,454,l),
(517,456,o),
(517,459,o),
(516,459,cs),
(508,461,o),
(499,464,o),
(490,466,cs),
(482,467,o),
(475,468,o),
(467,468,c),
(463,469,o),
(458,469,o),
(454,468,cs),
(448,467,o),
(447,467,o),
(451,480,c),
(457,474,l),
(461,482,l),
(481,487,l),
(486,490,o),
(491,493,o),
(497,496,c),
(508,498,o),
(519,500,o),
(530,500,cs),
(542,501,o),
(554,501,o),
(565,501,cs),
(576,500,o),
(586,502,o),
(598,518,c),
(598,515,o),
(598,510,o),
(596,509,c),
(577,486,o),
(557,464,o),
(538,442,cs),
(537,441,o),
(535,442,o),
(534,442,c),
(526,433,o),
(517,424,o),
(508,415,c),
(507,413,o),
(505,412,o),
(504,411,cs),
(484,381,o),
(464,387,o),
(444,384,cs),
(421,382,o),
(397,377,o),
(373,372,cs),
(357,369,o),
(340,363,o),
(322,358,c),
(341,378,l),
(341,380,l),
(332,372,o),
(323,364,o),
(313,356,cs),
(308,352,o),
(303,349,o),
(298,346,c)
);
},
{
closed = 1;
nodes = (
(596,563,l),
(597,567,l),
(613,565,l),
(612,562,l)
);
},
{
closed = 1;
nodes = (
(658,552,l),
(659,555,l),
(664,558,l),
(658,565,o),
(653,571,o),
(648,578,c),
(649,579,l),
(658,574,l),
(654,578,o),
(650,583,o),
(646,588,c),
(640,601,l),
(641,603,o),
(642,604,o),
(644,606,c),
(683,559,l),
(682,556,l),
(668,565,l),
(689,541,l)
);
}
);
width = 837;
}
);
note = B;
unicode = (66,98);
},
{
glyphname = C;
lastChange = "2022-12-26 01:22:10 +0000";
layers = (
{
layerId = m01;
shapes = (
{
closed = 1;
nodes = (
(174,43,l),
(121,78,l),
(121,82,l),
(167,89,l),
(164,98,ls),
(155,121,o),
(147,143,o),
(139,166,cs),
(133,184,o),
(127,203,o),
(122,223,cs),
(119,236,o),
(122,242,o),
(129,239,c),
(138,233,l),
(163,209,o),
(187,176,o),
(210,143,cs),
(221,128,o),
(231,109,o),
(243,101,cs),
(254,94,o),
(268,93,o),
(280,97,cs),
(292,100,o),
(304,105,o),
(316,99,cs),
(320,97,o),
(324,97,o),
(328,99,cs),
(340,106,o),
(354,105,o),
(365,98,c),
(367,96,o),
(370,96,o),
(372,97,cs),
(385,105,o),
(399,107,o),
(412,96,cs),
(418,91,o),
(423,95,o),
(427,105,cs),
(438,128,o),
(449,102,o),
(460,124,cs),
(469,144,o),
(479,161,o),
(488,180,cs),
(497,198,o),
(505,216,o),
(513,235,cs),
(525,265,o),
(496,234,o),
(508,265,cs),
(511,273,o),
(510,279,o),
(505,281,cs),
(496,283,o),
(486,286,o),
(477,287,cs),
(470,288,o),
(463,288,o),
(456,287,c),
(456,284,l),
(461,271,l),
(461,270,o),
(461,269,o),
(460,268,c),
(458,270,o),
(454,271,o),
(452,275,cs),
(447,287,o),
(441,289,o),
(434,284,c),
(441,266,l),
(401,260,l),
(403,284,l),
(285,274,l),
(285,276,l),
(374,292,l),
(373,294,o),
(372,295,o),
(370,295,cs),
(355,293,o),
(340,292,o),
(325,290,cs),
(304,287,o),
(282,285,o),
(262,278,cs),
(240,270,o),
(217,317,o),
(195,317,cs),
(192,317,o),
(189,318,o),
(187,319,c),
(187,321,o),
(189,324,o),
(191,325,cs),
(224,349,o),
(297,433,o),
(330,459,cs),
(366,488,o),
(403,500,o),
(441,494,cs),
(490,485,ls),
(513,482,o),
(535,478,o),
(558,475,cs),
(566,473,o),
(574,472,o),
(582,470,c),
(581,474,o),
(579,478,o),
(576,481,cs),
(558,503,o),
(539,526,o),
(520,547,cs),
(487,584,o),
(454,619,o),
(421,654,c),
(420,656,o),
(417,657,o),
(415,656,cs),
(335,620,l),
(332,618,o),
(330,621,o),
(330,628,c),
(327,648,l),
(325,647,l),
(325,638,o),
(326,628,o),
(326,618,c),
(317,614,o),
(308,611,o),
(299,608,c),
(288,607,o),
(279,599,o),
(270,588,cs),
(263,579,o),
(263,567,o),
(268,558,cs),
(272,552,o),
(276,547,o),
(281,542,c),
(293,533,o),
(306,525,o),
(317,517,c),
(318,501,o),
(327,509,o),
(331,497,c),
(317,499,o),
(304,499,o),
(292,501,cs),
(273,505,o),
(255,511,o),
(236,514,cs),
(229,515,o),
(221,512,o),
(212,510,c),
(215,525,o),
(218,538,o),
(220,552,cs),
(223,566,o),
(226,580,o),
(229,594,c),
(229,607,l),
(227,605,o),
(226,603,o),
(225,601,c),
(216,568,o),
(206,535,o),
(197,501,cs),
(192,485,o),
(185,483,o),
(177,476,c),
(193,528,ls),
(198,544,o),
(204,560,o),
(209,576,cs),
(215,592,o),
(220,609,o),
(225,626,cs),
(229,642,o),
(233,659,o),
(238,676,c),
(237,676,o),
(237,677,o),
(236,678,c),
(230,656,o),
(223,634,o),
(216,613,cs),
(212,601,o),
(207,591,o),
(203,578,cs),
(192,544,o),
(181,509,o),
(171,474,cs),
(170,471,o),
(169,468,o),
(169,465,c),
(167,469,l),
(167,470,o),
(166,472,o),
(166,474,c),
(148,450,l),
(144,447,o),
(143,441,o),
(146,436,c),
(147,431,o),
(147,427,o),
(145,422,cs),
(143,414,o),
(140,407,o),
(136,399,c),
(136,397,o),
(134,396,o),
(132,396,cs),
(126,396,o),
(120,395,o),
(115,395,cs),
(111,395,ls),
(107,395,o),
(103,395,o),
(100,395,cs),
(95,395,l),
(89,397,o),
(82,397,o),
(76,397,cs),
(71,396,o),
(66,391,o),
(61,389,cs),
(58,387,o),
(54,387,o),
(51,389,c),
(51,394,o),
(50,400,o),
(51,406,c),
(47,413,l),
(101,503,l),
(99,509,l),
(94,504,o),
(90,498,o),
(87,493,cs),
(74,470,o),
(63,444,o),
(46,436,cs),
(43,434,o),
(41,431,o),
(39,428,cs),
(37,424,o),
(34,419,o),
(32,415,cs),
(-6,356,l),
(-8,349,o),
(-10,342,o),
(-11,335,c),
(-8,331,o),
(-4,326,o),
(0,325,cs),
(31,318,o),
(62,323,o),
(94,329,cs),
(100,330,o),
(107,330,o),
(115,331,c),
(109,314,o),
(105,300,o),
(101,285,cs),
(94,261,o),
(83,242,o),
(81,212,c),
(80,211,o),
(80,209,o),
(79,207,cs),
(68,188,o),
(64,162,o),
(58,137,cs),
(55,123,o),
(59,116,o),
(64,111,cs),
(70,105,o),
(77,101,o),
(83,95,cs),
(90,88,o),
(98,81,o),
(107,75,cs),
(125,64,o),
(143,55,o),
(162,46,cs),
(166,44,o),
(170,42,o),
(174,41,c)
);
},
{
closed = 1;
nodes = (
(351,267,o),
(354,274,o),
(361,275,cs),
(369,276,o),
(377,278,o),
(386,279,cs),
(387,279,o),
(389,274,o),
(389,272,cs),
(390,266,o),
(391,259,o),
(386,258,cs),
(351,252,l)
);
}
);
width = 563;
}
);
note = C;
unicode = (67,99,199,231);
},
{
glyphname = D;
lastChange = "2022-12-26 01:22:11 +0000";
layers = (
{
layerId = m01;
shapes = (
{
closed = 1;
nodes = (
(42,105,o),
(48,136,o),
(55,168,c),
(116,162,o),
(177,155,o),
(238,151,cs),
(320,145,o),
(402,142,o),
(483,138,cs),
(496,138,o),
(509,140,o),
(522,144,cs),
(538,148,o),
(554,155,o),
(576,163,c),
(577,163,o),
(578,162,o),
(579,161,c),
(605,204,o),
(626,250,o),
(650,293,c),
(612,341,o),
(586,396,o),
(552,446,cs),
(506,515,o),
(459,582,o),
(403,644,c),
(397,640,l),
(479,515,l),
(435,516,o),
(402,531,o),
(375,571,c),
(420,545,l),
(434,560,o),
(432,570,o),
(419,582,cs),
(409,592,o),
(402,604,o),
(399,617,cs),
(394,635,o),
(388,642,o),
(368,638,cs),
(291,621,o),
(214,606,o),
(137,592,cs),
(106,586,o),
(76,583,o),
(45,577,cs),
(39,576,o),
(29,568,o),
(29,563,cs),
(27,530,o),
(28,497,o),
(28,468,c),
(17,372,o),
(6,276,o),
(-4,179,cs),
(-5,170,o),
(-3,155,o),
(2,152,cs),
(23,139,o),
(18,121,o),
(16,103,cs),
(15,95,o),
(15,87,o),
(16,80,c),
(23,78,l)
);
},
{
closed = 1;
nodes = (
(35,243,o),
(27,259,o),
(18,275,c),
(29,281,l),
(37,265,o),
(46,249,o),
(54,232,c),
(43,227,l)
);
},
{
closed = 1;
nodes = (
(71,215,o),
(73,219,o),
(75,222,cs),
(99,266,o),
(98,324,o),
(109,375,c),
(114,374,l),
(108,331,l),
(115,334,o),
(120,340,o),
(122,347,cs),
(128,381,o),
(132,415,o),
(137,448,c),
(168,441,o),
(198,432,o),
(228,422,cs),
(282,404,o),
(342,398,o),
(383,350,cs),
(401,328,o),
(421,308,o),
(439,287,c),
(444,279,o),
(449,272,o),
(452,264,c),
(431,258,l),
(429,257,o),
(427,257,o),
(425,256,cs),
(406,248,o),
(388,241,o),
(369,235,cs),
(351,230,o),
(332,230,o),
(314,227,cs),
(293,224,o),
(271,218,o),
(249,216,cs),
(227,214,o),
(205,216,o),
(184,216,cs),
(146,214,o),
(107,211,o),
(70,212,c)
);
},
{
closed = 1;
nodes = (
(513,382,o),
(510,383,o),
(507,385,cs),
(428,453,l),
(434,460,l),
(519,386,l),
(516,382,l)
);
},
{
closed = 1;
nodes = (
(500,432,o),
(493,433,o),
(488,436,c),
(452,466,o),
(417,498,o),
(381,529,c),
(385,534,l),
(411,514,o),
(436,494,o),
(462,475,cs),
(471,469,o),
(483,468,o),
(493,463,cs),
(499,460,o),
(505,455,o),
(510,449,c),
(511,443,o),
(509,438,o),
(505,434,c)
);
}
);
width = 649;
}
);
note = D;
unicode = (68,100);
},
{
glyphname = E;
lastChange = "2022-12-26 01:22:13 +0000";
layers = (
{
layerId = m01;
shapes = (
{
closed = 1;
nodes = (
(299,78,o),
(419,98,o),
(540,112,c),
(554,127,o),
(570,141,o),
(586,155,cs),
(592,160,o),
(598,166,o),
(603,173,c),
(599,172,ls),
(577,168,o),
(555,165,o),
(533,163,c),
(519,148,o),
(495,132,o),
(480,129,c),
(481,138,o),
(491,151,o),
(504,161,c),
(494,161,o),
(484,160,o),
(474,160,c),
(478,157,o),
(481,153,o),
(482,148,c),
(422,117,l),
(422,118,o),
(421,120,o),
(420,121,c),
(427,135,l),
(424,139,l),
(362,109,l),
(359,114,l),
(398,153,l),
(393,153,o),
(389,152,o),
(384,151,c),
(359,131,o),
(334,110,o),
(298,104,c),
(301,109,o),
(305,113,o),
(309,117,c),
(324,127,o),
(339,136,o),
(355,145,c),
(356,146,o),
(356,147,o),
(357,147,cs),
(318,141,l),
(298,117,o),
(272,108,o),
(244,102,c),
(257,118,o),
(275,130,o),
(295,137,c),
(260,131,l),
(259,131,l),
(240,113,o),
(216,104,o),
(190,100,c),
(201,111,o),
(213,120,o),
(227,127,c),
(205,124,l),
(186,108,o),
(163,103,o),
(137,96,c),
(148,107,o),
(160,116,o),
(174,122,c),
(169,122,o),
(164,123,o),
(159,123,c),
(141,109,o),
(118,102,o),
(95,102,c),
(110,114,l),
(120,118,o),
(130,122,o),
(140,125,c),
(132,127,ls),
(131,127,o),
(130,128,o),
(129,128,c),
(110,114,l),
(59,98,l),
(59,99,o),
(59,100,o),
(58,100,c),
(70,110,l),
(32,100,l),
(40,113,l),
(20,112,l),
(43,129,l),
(18,125,l),
(16,128,l),
(44,151,l),
(77,164,l),
(80,159,l),
(56,137,l),
(88,148,l),
(90,143,l),
(70,128,l),
(71,126,l),
(104,137,l),
(106,133,l),
(92,120,l),
(123,130,l),
(104,137,o),
(92,154,o),
(92,174,c),
(87,173,l),
(86,175,l),
(93,184,l),
(93,186,o),
(94,189,o),
(95,192,c),
(95,195,l),
(89,195,l),
(95,206,l),
(92,209,l),
(49,175,l),
(77,186,l),
(72,166,o),
(53,163,o),
(44,151,c),
(18,143,l),
(18,144,o),
(17,144,o),
(17,145,c),
(26,152,l),
(26,156,l),
(41,169,l),
(28,169,l),
(28,172,o),
(28,175,o),
(29,178,c),
(32,180,o),
(35,182,o),
(37,185,cs),
(41,190,o),
(38,200,o),
(42,203,cs),
(54,212,o),
(62,224,o),
(67,237,cs),
(69,245,o),
(72,252,o),
(76,258,c),
(115,269,l),
(110,272,l),
(80,264,l),
(82,269,o),
(86,273,o),
(89,277,c),
(128,289,l),
(124,291,l),
(112,289,o),
(99,286,o),
(87,283,c),
(84,285,l),
(83,283,l),
(68,280,o),
(53,276,o),
(39,270,c),
(40,274,o),
(40,278,o),
(41,281,c),
(46,279,l),
(143,309,l),
(138,311,l),
(101,304,o),
(66,296,o),
(41,283,c),
(46,325,o),
(50,367,o),
(55,409,c),
(145,437,l),
(139,440,l),
(112,434,o),
(83,429,o),
(57,422,c),
(58,433,l),
(167,467,l),
(160,471,l),
(103,460,o),
(49,447,o),
(12,426,c),
(21,421,l),
(47,429,l),
(32,417,l),
(31,415,l),
(21,411,o),
(10,407,o),
(1,401,c),
(11,395,l),
(30,401,l),
(15,196,l),
(12,194,o),
(9,191,o),
(7,189,cs),
(0,182,o),
(-6,175,o),
(-11,167,cs),
(-14,162,l),
(-11,135,o),
(-10,102,o),
(16,90,cs),
(64,68,o),
(127,72,o),
(178,74,cs)
);
},
{
closed = 1;
nodes = (
(37,248,l),
(37,247,l),
(63,255,l),
(57,247,o),
(52,239,o),
(46,231,cs),
(33,212,l)
);
},
{
closed = 1;
nodes = (
(38,262,l),
(39,262,l),
(76,274,l),
(68,262,l),
(38,255,l)
);
},
{
closed = 1;
nodes = (
(160,330,l),
(156,332,l),
(110,325,o),
(58,307,o),
(57,296,c)
);
},
{
closed = 1;
nodes = (
(184,352,l),
(179,354,l),
(134,347,o),
(108,331,o),
(72,320,c),
(80,316,l)
);
},
{
closed = 1;
nodes = (
(218,377,l),
(211,380,l),
(100,341,l),
(108,338,l)
);
},
{
closed = 1;
nodes = (
(190,377,l),
(185,380,l),
(129,362,l),
(135,359,l)
);
},
{
closed = 1;
nodes = (
(220,397,l),
(205,399,o),
(179,392,o),
(171,383,c)
);
},
{
closed = 1;
nodes = (
(193,499,l),
(186,502,l),
(118,491,o),
(40,464,o),
(38,447,c)
);
},
{
closed = 1;
nodes = (
(253,401,l),
(249,403,l),
(221,397,l),
(220,397,l),
(221,397,l),
(199,387,l),
(204,385,l)
);
},
{
closed = 1;
nodes = (
(228,533,l),
(221,536,l),
(154,525,o),
(114,501,o),
(61,483,c),
(73,478,l)
);
},
{
closed = 1;
nodes = (
(223,409,o),
(235,415,o),
(242,414,cs),
(266,412,o),
(269,419,o),
(280,422,c),
(274,426,l),
(209,410,l),
(214,407,l)
);
},
{
closed = 1;
nodes = (
(279,571,l),
(269,575,l),
(102,516,l),
(114,511,l)
);
},
{
closed = 1;
nodes = (
(237,571,l),
(230,574,l),
(146,548,l),
(156,544,l)
);
},
{
closed = 1;
nodes = (
(341,452,l),
(337,453,l),
(295,441,l),
(303,438,l)
);
},
{
closed = 1;
nodes = (
(283,601,l),
(260,604,o),
(220,593,o),
(209,579,c)
);
},
{
closed = 1;
nodes = (
(331,608,l),
(325,611,l),
(283,601,l),
(251,585,l),
(259,582,l)
);
},
{
closed = 1;
nodes = (
(287,620,o),
(304,628,o),
(315,627,cs),
(351,623,o),
(355,634,o),
(372,640,c),
(364,645,l),
(266,621,l),
(273,616,l)
);
},
{
closed = 1;
nodes = (
(464,684,l),
(457,687,l),
(394,668,l),
(406,664,l)
);
}
);
width = 607;
}
);
note = E;
unicode = (69,101,200,201,202,203,232,233,234,235);
},
{
glyphname = F;
lastChange = "2022-12-26 01:22:14 +0000";
layers = (
{
layerId = m01;
shapes = (
{
closed = 1;
nodes = (
(231,8,o),
(217,168,o),
(209,169,c),
(207,192,o),
(204,214,o),
(202,236,c),
(206,237,l),
(217,226,l),
(221,227,l),
(220,250,o),
(218,273,o),
(216,296,c),
(222,297,l),
(242,251,l),
(245,253,o),
(247,254,o),
(250,255,c),
(239,287,o),
(227,319,o),
(235,357,c),
(239,353,o),
(241,347,o),
(243,342,c),
(247,325,o),
(250,307,o),
(253,289,cs),
(255,281,o),
(257,272,o),
(258,264,c),
(263,264,l),
(263,273,o),
(264,282,o),
(265,293,c),
(275,281,l),
(276,290,o),
(277,298,o),
(277,307,c),
(282,303,o),
(287,311,o),
(291,308,c),
(292,316,o),
(317,311,o),
(318,319,c),
(327,308,l),
(328,316,o),
(328,321,o),
(328,325,c),
(341,322,l),
(341,321,o),
(342,318,o),
(343,314,c),
(351,322,l),
(353,316,o),
(355,313,o),
(356,309,c),
(370,314,o),
(366,299,o),
(371,295,c),
(372,296,o),
(412,304,o),
(413,304,c),
(418,299,o),
(444,281,o),
(452,273,c),
(455,359,l),
(435,363,o),
(328,374,o),
(308,383,cs),
(295,388,o),
(287,402,o),
(289,416,c),
(286,418,o),
(283,421,o),
(281,425,c),
(284,409,o),
(282,393,o),
(277,378,c),
(264,404,o),
(264,431,o),
(271,459,c),
(273,453,o),
(276,447,o),
(277,441,c),
(278,445,o),
(279,449,o),
(281,453,c),
(284,456,l),
(283,474,o),
(283,492,o),
(286,510,c),
(292,498,o),
(295,486,o),
(297,473,c),
(299,475,o),
(301,477,o),
(304,479,c),
(297,502,o),
(299,525,o),
(308,547,c),
(309,541,o),
(311,534,o),
(313,528,c),
(313,491,ls),
(313,489,o),
(313,488,o),
(312,487,cs),
(331,500,o),
(352,507,o),
(375,508,c),
(375,515,o),
(376,521,o),
(376,528,c),
(379,528,l),
(383,522,o),
(386,515,o),
(390,507,c),
(392,507,l),
(396,518,l),
(404,509,l),
(409,510,l),
(403,528,o),
(397,545,o),
(392,563,c),
(392,532,l),
(376,545,o),
(379,563,o),
(371,576,c),
(372,585,o),
(373,594,o),
(373,604,c),
(378,604,l),
(390,572,l),
(391,577,o),
(393,582,o),
(395,587,c),
(401,589,l),
(403,582,o),
(402,575,o),
(406,570,cs),
(409,565,o),
(419,564,o),
(421,559,cs),
(425,545,o),
(433,533,o),
(444,523,cs),
(456,514,o),
(466,502,o),
(473,488,c),
(474,487,o),
(476,487,o),
(478,487,c),
(482,490,l),
(446,545,ls),
(440,553,o),
(434,562,o),
(429,571,cs),
(425,579,o),
(424,589,o),
(420,597,cs),
(416,606,o),
(412,614,o),
(406,621,c),
(387,649,o),
(368,676,o),
(348,702,cs),
(345,707,o),
(337,707,o),
(331,710,c),
(330,702,o),
(324,705,o),
(319,705,c),
(322,686,ls),
(322,683,o),
(322,681,o),
(321,679,c),
(318,686,o),
(315,691,o),
(311,699,c),
(296,679,o),
(274,668,o),
(267,644,c),
(245,632,o),
(230,611,o),
(217,588,c),
(206,574,o),
(194,559,o),
(183,544,cs),
(156,507,o),
(128,470,o),
(102,432,cs),
(72,389,o),
(44,346,o),
(15,303,cs),
(1,283,o),
(-12,263,o),
(-25,243,c),
(-21,244,o),
(-17,246,o),
(-14,249,cs),
(20,276,o),
(81,267,o),
(103,229,cs),
(111,215,o),
(112,197,o),
(116,181,cs),
(118,175,o),
(121,170,o),
(125,165,cs),
(134,154,o),
(146,146,o),
(152,135,cs),
(162,114,o),
(170,92,o),
(177,70,cs),
(185,50,o),
(195,33,o),
(213,21,cs),
(220,17,o),
(225,13,o),
(231,8,c)
);
},
{
closed = 1;
nodes = (
(202,111,o),
(188,157,o),
(192,179,c),
(209,169,o),
(224,122,o),
(216,99,c)
);
},
{
closed = 1;
nodes = (
(113,394,l),
(115,397,l),
(145,378,l),
(143,374,l)
);
},
{
closed = 1;
nodes = (
(247,351,o),
(248,380,o),
(253,408,c),
(268,383,o),
(271,353,o),
(262,325,c)
);
},
{
closed = 1;
nodes = (
(178,454,o),
(173,479,o),
(147,480,c),
(153,481,o),
(159,480,o),
(165,478,c),
(179,470,o),
(189,457,o),
(194,442,c)
);
},
{
closed = 1;
nodes = (
(206,554,l),
(224,546,o),
(228,529,o),
(233,512,c)
);
},
{
closed = 1;
nodes = (
(259,524,l),
(253,542,o),
(247,560,o),
(240,578,cs),
(237,587,o),
(230,596,o),
(217,589,c),
(219,584,l),
(233,586,o),
(237,575,o),
(240,565,cs),
(246,551,o),
(250,537,o),
(255,523,c)
);
},
{
closed = 1;
nodes = (
(317,512,o),
(315,520,o),
(313,528,c),
(314,546,o),
(315,564,o),
(317,581,c),
(319,582,l),
(321,578,o),
(322,574,o),
(324,567,c),
(329,607,l),
(333,600,o),
(335,597,o),
(338,594,c),
(344,613,l),
(347,603,o),
(348,596,o),
(351,585,c),
(354,596,o),
(356,603,o),
(357,610,c),
(360,611,l),
(371,576,l),
(371,541,l),
(366,540,l),
(354,570,l),
(354,556,o),
(353,547,o),
(353,537,c),
(347,536,l),
(345,544,o),
(343,552,o),
(340,561,c),
(338,560,l),
(337,525,l),
(333,525,l),
(331,530,o),
(329,535,o),
(325,543,c),
(324,528,o),
(324,517,o),
(323,505,c),
(320,505,l)
);
},
{
closed = 1;
nodes = (
(294,638,l),
(298,640,l),
(300,626,o),
(302,613,o),
(303,600,c),
(300,599,l)
);
}
);
width = 462;
}
);
note = F;
unicode = (70,102);
},
{
glyphname = G;
lastChange = "2022-12-26 01:22:16 +0000";
layers = (
{
layerId = m01;
shapes = (
{
closed = 1;
nodes = (
(350,34,l),
(361,35,l),
(367,77,o),
(372,120,o),
(377,162,c),
(386,164,l),
(381,122,o),
(376,81,o),
(370,40,c),
(385,46,l),
(399,48,l),
(406,101,o),
(412,155,o),
(419,209,c),
(400,205,l),
(398,191,o),
(397,178,o),
(396,165,c),
(390,166,o),
(384,166,o),
(378,167,c),
(379,173,o),
(379,179,o),
(380,186,c),
(362,182,l),
(361,178,o),
(361,174,o),
(361,170,c),
(349,173,o),
(338,178,o),
(329,185,cs),
(318,195,o),
(305,203,o),
(294,213,cs),
(291,216,o),
(288,219,o),
(285,223,c),
(286,224,l),
(264,236,o),
(243,250,o),
(224,266,cs),
(221,269,l),
(218,267,o),
(215,265,o),
(211,263,c),
(206,266,o),
(197,269,o),
(188,274,cs),
(184,276,o),
(180,278,o),
(176,281,c),
(175,274,o),
(174,267,o),
(174,261,c),
(171,265,o),
(169,269,o),
(167,273,c),
(168,264,o),
(168,254,o),
(169,244,c),
(163,232,l),
(154,229,l),
(154,252,l),
(158,253,l),
(167,273,l),
(168,288,o),
(170,303,o),
(172,318,c),
(184,323,l),
(174,336,o),
(161,326,o),
(147,310,c),
(147,305,ls),
(147,296,o),
(147,287,o),
(148,277,c),
(144,272,l),
(135,285,o),
(127,298,o),
(118,312,c),
(100,322,o),
(82,332,o),
(63,341,c),
(54,337,l),
(56,339,o),
(57,342,o),
(59,344,c),
(54,346,o),
(50,349,o),
(46,351,cs),
(39,354,l),
(56,351,o),
(81,347,o),
(106,344,c),
(138,293,l),
(147,305,l),
(147,310,l),
(143,320,o),
(139,330,o),
(136,339,c),
(142,339,l),
(162,349,l),
(99,398,l),
(105,414,l),
(138,390,l),
(139,393,o),
(138,397,o),
(136,400,c),
(139,401,o),
(142,403,o),
(144,406,c),
(132,411,l),
(130,423,o),
(129,435,o),
(128,446,c),
(133,442,l),
(148,464,o),
(162,486,o),
(189,496,cs),
(203,502,o),
(216,508,o),
(230,513,cs),
(235,514,o),
(239,515,o),
(244,515,c),
(244,514,l),
(265,527,o),
(288,538,o),
(312,546,c),
(313,547,o),
(314,547,o),
(316,547,c),
(316,559,l),
(317,560,o),
(318,562,o),
(320,563,c),
(322,547,l),
(340,544,l),
(339,554,o),
(338,564,o),
(336,574,c),
(348,581,l),
(334,591,l),
(331,616,l),
(352,605,l),
(355,578,o),
(357,551,o),
(360,525,c),
(379,520,l),
(370,594,l),
(372,596,l),
(369,596,l),
(369,602,o),
(368,608,o),
(367,613,c),
(390,614,l),
(405,475,l),
(424,471,l),
(418,519,o),
(412,568,o),
(405,616,c),
(423,626,o),
(440,637,o),
(457,647,c),
(458,658,l),
(460,655,o),
(461,653,o),
(462,650,c),
(466,653,o),
(470,655,o),
(475,658,cs),
(479,660,o),
(484,666,o),
(484,669,cs),
(483,682,o),
(492,686,o),
(500,691,cs),
(503,693,o),
(507,695,o),
(510,698,c),
(508,702,l),
(481,701,o),
(459,681,o),
(431,677,cs),
(408,673,o),
(386,657,o),
(363,645,c),
(363,649,l),
(375,655,l),
(372,658,o),
(368,658,o),
(364,657,c),
(363,656,o),
(363,656,o),
(362,655,c),
(359,681,l),
(345,683,l),
(348,648,l),
(342,644,o),
(335,640,o),
(329,637,c),
(326,656,o),
(324,675,o),
(321,694,c),
(307,695,l),
(310,673,o),
(312,651,o),
(314,628,c),
(310,626,o),
(307,624,o),
(304,623,c),
(301,621,o),
(299,620,o),
(296,619,c),
(296,622,o),
(296,625,o),
(295,628,c),
(298,630,l),
(297,635,l),
(296,634,o),
(295,634,o),
(295,634,c),
(290,669,l),
(274,671,l),
(276,656,o),
(278,641,o),
(279,626,c),
(274,623,l),
(280,620,l),
(282,603,l),
(272,622,l),
(270,621,o),
(268,621,o),
(265,620,c),
(258,672,l),
(244,673,l),
(247,646,o),
(249,619,o),
(252,591,c),
(247,597,o),
(242,602,o),
(236,608,c),
(235,621,o),
(233,634,o),
(231,647,c),
(218,649,l),
(219,635,o),
(220,622,o),
(221,608,c),
(220,608,l),
(221,607,l),
(221,601,o),
(222,595,o),
(222,589,c),
(210,589,l),
(218,572,l),
(216,568,o),
(215,564,o),
(213,559,c),
(213,560,ls),
(212,570,o),
(210,579,o),
(209,589,c),
(210,589,l),
(210,589,l),
(209,590,l),
(207,604,o),
(205,618,o),
(204,632,c),
(195,633,l),
(195,623,o),
(194,613,o),
(194,602,c),
(192,602,o),
(190,602,o),
(188,601,c),
(194,598,l),
(194,590,o),
(194,582,o),
(193,575,c),
(166,596,l),
(160,595,o),
(155,593,o),
(149,592,c),
(172,576,l),
(172,568,o),
(171,560,o),
(171,552,c),
(162,546,l),
(167,542,l),
(164,534,l),
(162,539,o),
(161,544,o),
(159,550,c),
(169,556,l),
(161,562,l),
(158,560,o),
(154,557,o),
(150,555,c),
(151,554,l),
(151,547,o),
(150,540,o),
(150,533,c),
(133,546,l),
(129,543,o),
(124,541,o),
(120,538,c),
(149,517,l),
(148,512,o),
(148,506,o),
(147,500,cs),
(147,499,o),
(146,498,o),
(146,497,c),
(142,500,l),
(131,516,l),
(131,509,l),
(104,529,l),
(99,527,l),
(97,530,l),
(99,530,o),
(100,531,o),
(101,532,c),
(94,537,l),
(77,531,l),
(89,541,l),
(74,553,l),
(69,551,o),
(64,551,o),
(59,551,cs),
(54,552,o),
(50,551,o),
(47,549,c),
(129,489,l),
(129,482,o),
(128,475,o),
(128,469,c),
(42,534,l),
(39,510,l),
(108,460,l),
(108,454,o),
(108,447,o),
(107,440,c),
(37,493,l),
(25,416,ls),
(23,400,o),
(19,384,o),
(16,368,c),
(16,365,o),
(18,359,o),
(20,358,cs),
(25,356,o),
(30,355,o),
(36,354,c),
(34,354,o),
(32,354,o),
(31,353,cs),
(20,346,o),
(13,352,o),
(4,356,cs),
(1,358,o),
(-3,360,o),
(-7,361,c),
(-9,358,l),
(5,334,o),
(34,326,o),
(51,304,cs),
(67,283,o),
(96,272,o),
(119,257,c),
(118,255,l),
(98,266,l),
(98,262,o),
(99,258,o),
(102,256,cs),
(162,221,ls),
(165,219,o),
(168,217,o),
(171,215,c),
(171,214,l),
(172,214,l),
(173,213,o),
(174,212,o),
(176,211,c),
(175,214,o),
(175,217,o),
(175,219,c),
(183,232,l),
(188,224,l),
(188,219,o),
(188,214,o),
(189,210,c),
(178,194,l),
(182,191,o),
(187,187,o),
(191,183,c),
(191,175,l),
(198,177,l),
(202,190,o),
(207,203,o),
(211,217,c),
(211,204,o),
(211,191,o),
(211,179,c),
(208,167,l),
(209,165,o),
(210,164,o),
(212,162,c),
(212,143,l),
(220,145,l),
(230,172,l),
(233,166,l),
(233,159,o),
(234,152,o),
(234,144,c),
(233,143,o),
(233,141,o),
(232,139,c),
(233,139,o),
(233,138,o),
(234,137,c),
(234,123,o),
(235,110,o),
(235,96,c),
(244,97,l),
(247,122,o),
(250,148,o),
(254,173,c),
(262,175,l),
(260,155,o),
(257,135,o),
(255,115,c),
(256,113,o),
(258,112,o),
(260,110,c),
(259,100,o),
(259,90,o),
(258,80,c),
(271,82,l),
(274,106,o),
(278,130,o),
(281,154,c),
(290,156,l),
(290,152,o),
(289,148,o),
(288,143,c),
(292,141,l),
(292,136,l),
(288,139,l),
(287,135,o),
(287,132,o),
(286,129,c),
(291,126,l),
(290,115,l),
(288,115,o),
(286,115,o),
(285,116,c),
(283,107,o),
(282,98,o),
(281,89,c),
(283,87,o),
(285,85,o),
(287,83,c),
(284,56,l),
(298,57,l),
(310,145,l),
(320,147,l),
(318,135,o),
(316,124,o),
(315,112,c),
(320,109,l),
(319,103,l),
(314,106,l),
(313,101,o),
(312,96,o),
(312,92,c),
(314,91,o),
(316,91,o),
(318,91,c),
(317,84,o),
(317,77,o),
(316,70,c),
(309,76,l),
(309,72,o),
(308,68,o),
(308,64,c),
(312,60,o),
(317,56,o),
(322,52,c),
(322,54,o),
(322,57,o),
(323,59,c),
(330,60,l),
(342,147,l),
(350,148,l),
(343,96,l),
(348,93,l),
(346,90,l),
(343,91,l),
(342,89,o),
(342,86,o),
(342,83,c),
(351,75,l),
(351,73,l),
(341,77,l),
(338,58,l),
(342,54,o),
(345,50,o),
(347,45,c),
(348,44,o),
(348,44,o),
(348,43,cs),
(348,37,l),
(344,40,o),
(340,44,o),
(337,48,c),
(336,40,l),
(348,31,l)
);
},
{
closed = 1;
nodes = (
(177,198,o),
(176,201,o),
(176,204,c),
(158,213,l),
(155,209,l),
(163,205,o),
(170,200,o),
(177,195,c)
);
},
{
closed = 1;
nodes = (
(60,318,l),
(88,321,l),
(89,315,l),
(60,312,l)
);
},
{
closed = 1;
nodes = (
(211,217,l),
(212,216,o),
(212,215,o),
(213,214,c)
);
},
{
closed = 1;
nodes = (
(45,439,l),
(51,454,l),
(91,425,l),
(82,411,l)
);
},
{
closed = 1;
nodes = (
(132,465,l),
(140,481,l),
(148,476,l),
(142,458,l)
);
},
{
closed = 1;
nodes = (
(66,559,l),
(60,564,l),
(46,558,l),
(46,557,o),
(47,556,o),
(47,554,c)
);
},
{
closed = 1;
nodes = (
(432,65,o),
(457,75,o),
(481,84,cs),
(496,90,o),
(511,95,o),
(527,101,cs),
(530,102,o),
(534,107,o),
(534,110,cs),
(532,122,o),
(505,186,o),
(489,224,c),
(470,236,l),
(464,187,o),
(457,138,o),
(451,90,c),
(435,88,l),
(438,110,l),
(445,111,l),
(451,160,o),
(458,209,o),
(464,258,c),
(536,212,l),
(536,218,o),
(537,225,o),
(538,232,c),
(313,378,l),
(313,370,o),
(313,362,o),
(314,354,c),
(463,258,l),
(445,255,l),
(443,232,o),
(440,209,o),
(438,186,c),
(433,177,o),
(432,165,o),
(422,163,c),
(417,127,o),
(413,91,o),
(408,55,c)
);
},
{
closed = 1;
nodes = (
(105,568,l),
(95,576,l),
(77,570,l),
(86,564,l)
);
},
{
closed = 1;
nodes = (
(128,550,l),
(125,553,o),
(121,556,o),
(117,559,c),
(108,547,l),
(116,541,l)
);
},
{
closed = 1;
nodes = (
(146,563,o),
(148,567,o),
(151,570,c),
(130,587,l),
(113,581,l),
(143,560,l)
);
},
{
closed = 1;
nodes = (
(187,566,l),
(193,569,l),
(193,564,l),
(192,563,o),
(190,562,o),
(189,562,c),
(189,561,l)
);
},
{
closed = 1;
nodes = (
(239,589,l),
(238,598,l),
(252,590,l),
(252,588,l)
);
},
{
closed = 1;
nodes = (
(269,591,o),
(268,599,o),
(267,607,c),
(282,600,l),
(282,598,l),
(280,592,o),
(278,583,o),
(275,583,c),
(274,582,o),
(272,583,o),
(271,583,c)
);
},
{
closed = 1;
nodes = (
(299,599,l),
(299,603,o),
(298,607,o),
(298,611,c),
(316,602,l),
(317,601,o),
(317,600,o),
(317,598,c)
);
},
{
closed = 1;
nodes = (
(457,528,l),
(439,531,l),
(451,424,l),
(472,419,l)
);
},
{
closed = 1;
nodes = (
(313,616,l),
(313,619,o),
(314,622,o),
(314,625,c),
(315,621,o),
(315,616,o),
(315,612,c)
);
},
{
closed = 1;
nodes = (
(422,639,l),
(434,665,l),
(440,662,l),
(427,636,l)
);
}
);
width = 552;
}
);
note = G;
unicode = (71,103);
},
{
glyphname = H;
lastChange = "2022-12-26 01:22:18 +0000";
layers = (
{
layerId = m01;
shapes = (
{
closed = 1;
nodes = (
(103,62,o),
(94,128,o),
(105,195,cs),
(113,238,o),
(117,282,o),
(119,326,c),
(360,434,l),
(358,432,o),
(358,430,o),
(358,427,c),
(363,407,o),
(368,387,o),
(375,367,cs),
(380,352,o),
(388,336,o),
(407,332,c),
(410,332,o),
(412,325,o),
(412,322,cs),
(406,274,ls),
(403,245,o),
(399,215,o),
(395,186,cs),
(393,170,o),
(390,154,o),
(388,138,c),
(385,128,o),
(383,117,o),
(382,107,c),
(383,100,o),
(386,93,o),
(390,88,cs),
(391,86,o),
(399,89,o),
(407,91,c),
(402,95,o),
(400,97,o),
(398,98,cs),
(397,99,o),
(395,100,o),
(393,102,c),
(409,102,o),
(411,105,o),
(407,117,c),
(416,127,l),
(403,137,l),
(418,135,o),
(422,139,o),
(419,148,c),
(426,168,l),
(421,169,l),
(429,174,o),
(439,178,o),
(424,187,c),
(433,192,o),
(443,194,o),
(435,202,c),
(438,210,o),
(439,216,o),
(441,222,c),
(445,228,o),
(452,233,o),
(440,241,c),
(449,246,o),
(457,250,o),
(445,259,c),
(455,263,o),
(460,268,o),
(451,278,c),
(462,281,o),
(462,288,o),
(459,295,c),
(462,306,o),
(464,318,o),
(468,333,c),
(472,337,o),
(478,373,o),
(474,379,c),
(477,389,o),
(480,398,o),
(482,407,cs),
(483,415,o),
(482,423,o),
(483,431,cs),
(485,444,o),
(488,456,o),
(489,469,cs),
(490,484,o),
(490,499,o),
(490,514,cs),
(488,540,o),
(488,566,o),
(484,592,cs),
(480,617,o),
(479,617,o),
(453,620,cs),
(448,620,o),
(443,621,o),
(439,623,cs),
(424,628,o),
(409,634,o),
(392,640,c),
(404,592,l),
(391,601,l),
(387,599,l),
(396,582,o),
(406,565,o),
(411,547,cs),
(416,529,o),
(415,509,o),
(417,490,c),
(413,489,l),
(413,490,o),
(412,491,o),
(412,491,c),
(409,491,l),
(382,532,l),
(378,529,o),
(376,523,o),
(378,518,cs),
(393,490,l),
(383,490,o),
(373,487,o),
(365,481,cs),
(357,474,o),
(348,469,o),
(338,467,cs),
(331,465,o),
(319,467,o),
(325,448,c),
(325,446,o),
(320,438,o),
(317,436,cs),
(308,431,o),
(299,428,o),
(290,426,cs),
(287,425,o),
(284,431,o),
(279,436,c),
(227,418,l),
(227,414,l),
(242,411,l),
(148,366,l),
(150,364,o),
(153,361,o),
(156,357,c),
(120,337,l),
(122,394,o),
(122,452,o),
(122,510,cs),
(122,571,o),
(110,632,o),
(102,693,cs),
(101,702,o),
(90,709,o),
(84,717,c),
(77,710,o),
(66,704,o),
(63,695,cs),
(50,658,o),
(39,620,o),
(29,583,cs),
(21,558,o),
(16,533,o),
(10,507,c),
(17,505,l),
(47,546,l),
(51,529,o),
(55,518,o),
(56,507,cs),
(59,453,o),
(60,400,o),
(63,346,cs),
(69,244,o),
(76,142,o),
(83,39,cs),
(84,24,o),
(88,10,o),
(90,-5,c)
);
},
{
closed = 1;
nodes = (
(102,482,l),
(109,482,l),
(105,331,l),
(99,331,l)
);
},
{
closed = 1;
nodes = (
(399,368,o),
(390,381,o),
(382,395,cs),
(375,410,o),
(369,425,o),
(364,441,c),
(363,440,l),
(361,445,o),
(359,449,o),
(356,458,c),
(370,461,o),
(384,464,o),
(397,468,cs),
(400,469,o),
(402,470,o),
(403,472,c),
(406,468,o),
(408,464,o),
(410,460,c),
(414,455,o),
(416,449,o),
(417,443,cs),
(418,422,o),
(418,401,o),
(418,379,c),
(417,372,o),
(416,364,o),
(414,357,c),
(408,355,l)
);
}
);
width = 484;
}
);
note = H;
unicode = (72,104);
},
{
glyphname = I;
lastChange = "2022-12-26 01:22:21 +0000";
layers = (
{
layerId = m01;
shapes = (
{
closed = 1;
nodes = (
(68,35,l),
(69,42,l),
(52,66,l),
(59,225,o),
(70,89,o),
(79,100,c),
(81,191,o),
(71,192,o),
(65,266,c),
(76,232,o),
(85,211,o),
(93,178,cs),
(101,148,o),
(104,165,o),
(105,238,cs),
(106,284,o),
(108,330,o),
(109,377,c),
(45,347,l),
(44,366,l),
(109,393,l),
(110,402,o),
(110,410,o),
(110,418,c),
(49,390,l),
(47,410,l),
(110,434,l),
(111,442,o),
(111,449,o),
(111,457,c),
(53,430,l),
(52,437,o),
(52,443,o),
(51,449,c),
(111,473,l),
(114,576,l),
(113,582,o),
(112,588,o),
(110,593,c),
(88,621,o),
(64,648,o),
(39,673,cs),
(37,675,o),
(33,646,o),
(31,622,cs),
(30,613,o),
(33,578,o),
(35,547,c),
(31,505,o),
(24,456,o),
(30,372,cs),
(30,367,o),
(29,353,o),
(29,342,cs),
(28,316,l),
(65,332,l),
(66,326,o),
(67,320,o),
(67,314,c),
(27,295,l),
(21,35,l)
);
},
{
closed = 1;
nodes = (
(54,473,o),
(53,479,o),
(52,486,c),
(104,507,l),
(106,492,l),
(54,467,l)
);
}
);
width = 129;
}
);
note = I;
unicode = (73,105,204,205,206,207,236,237,238,239);
},
{
glyphname = J;
lastChange = "2022-12-26 01:22:20 +0000";
layers = (
{
layerId = m01;
shapes = (
{
closed = 1;
nodes = (
(275,46,o),
(247,49,o),
(250,53,cs),
(274,87,o),
(274,124,o),
(273,160,cs),
(273,168,o),
(274,175,o),
(274,184,c),
(279,183,l),
(269,230,o),
(367,378,o),
(367,378,c),
(367,378,o),
(342,444,o),
(369,502,cs),
(392,550,o),
(418,599,o),
(418,648,cs),
(418,649,l),
(384,660,o),
(390,671,o),
(356,681,cs),
(341,686,o),
(327,686,o),
(323,681,cs),
(315,671,o),
(307,661,o),
(300,650,c),
(297,642,o),
(295,635,o),
(294,627,c),
(301,626,l),
(328,629,l),
(335,628,l),
(329,625,o),
(326,622,o),
(317,620,cs),
(290,616,o),
(284,610,o),
(292,601,c),
(333,605,l),
(332,589,o),
(332,574,o),
(332,560,c),
(284,566,l),
(266,431,l),
(261,432,l),
(256,535,l),
(252,534,o),
(251,532,o),
(251,531,cs),
(248,514,o),
(247,496,o),
(246,479,cs),
(246,455,o),
(242,430,o),
(251,406,cs),
(259,381,o),
(260,354,o),
(252,329,c),
(250,326,o),
(248,323,o),
(245,320,c),
(244,321,o),
(242,322,o),
(240,322,c),
(245,287,o),
(260,247,o),
(186,224,c),
(184,224,o),
(181,223,o),
(178,222,c),
(179,222,o),
(180,222,o),
(181,221,c),
(184,221,o),
(186,218,o),
(186,216,cs),
(183,196,ls),
(183,194,o),
(181,193,o),
(181,192,cs),
(178,179,l),
(177,177,o),
(177,175,o),
(176,173,cs),
(173,166,o),
(165,160,o),
(166,153,cs),
(166,147,o),
(176,140,o),
(179,134,cs),
(180,132,o),
(180,130,o),
(180,128,c),
(179,126,o),
(178,124,o),
(176,123,cs),
(174,122,o),
(155,125,o),
(140,126,c),
(123,123,l),
(67,149,o),
(47,269,o),
(-9,294,c),
(-23,293,l),
(-13,287,o),
(-3,282,o),
(7,277,cs),
(49,259,o),
(64,147,o),
(76,126,c),
(80,122,o),
(85,119,o),
(90,117,cs),
(98,113,o),
(107,110,o),
(115,106,cs),
(152,88,o),
(187,70,o),
(226,53,cs),
(234,49,o),
(253,46,o),
(267,43,c)
);
},
{
closed = 1;
nodes = (
(302,505,o),
(288,509,o),
(288,517,cs),
(289,526,o),
(288,536,o),
(289,546,cs),
(289,547,o),
(299,549,o),
(305,548,c),
(317,548,o),
(332,547,o),
(332,542,cs),
(332,501,l)
);
}
);
width = 387;
}
);
note = J;
unicode = (74,106);
},
{
glyphname = K;
lastChange = "2022-12-26 01:22:23 +0000";
layers = (
{
layerId = m01;
shapes = (
{
closed = 1;
nodes = (
(216,1,l),
(151,44,l),
(151,49,l),
(207,57,l),
(206,61,o),
(204,65,o),
(203,68,cs),
(193,96,o),
(182,123,o),
(173,152,cs),
(165,174,o),
(158,197,o),
(152,221,cs),
(148,237,o),
(152,244,o),
(160,240,c),
(164,239,o),
(168,236,o),
(171,233,cs),
(203,204,o),
(231,164,o),
(260,123,cs),
(273,105,o),
(285,82,o),
(300,72,cs),
(313,64,o),
(330,62,o),
(345,67,cs),
(360,71,o),
(374,77,o),
(389,69,cs),
(394,67,o),
(400,68,o),
(404,70,cs),
(419,78,o),
(436,77,o),
(450,68,c),
(452,66,o),
(455,66,o),
(458,68,cs),
(474,78,o),
(490,79,o),
(506,67,cs),
(514,60,o),
(520,65,o),
(526,77,cs),
(538,105,o),
(552,73,o),
(565,101,cs),
(576,124,o),
(589,146,o),
(600,169,cs),
(610,191,o),
(621,128,o),
(630,151,cs),
(645,188,o),
(610,150,o),
(624,188,cs),
(628,198,o),
(626,206,o),
(621,207,cs),
(609,211,o),
(597,213,o),
(586,215,cs),
(578,216,o),
(569,216,o),
(561,215,c),
(561,211,l),
(567,196,l),
(566,192,l),
(563,195,o),
(558,196,o),
(556,201,cs),
(550,215,o),
(542,218,o),
(533,212,c),
(542,189,l),
(494,182,l),
(494,193,o),
(495,200,o),
(496,211,c),
(351,199,l),
(351,202,l),
(461,222,l),
(460,223,o),
(458,225,o),
(455,224,c),
(437,223,o),
(419,221,o),
(400,218,cs),
(374,214,o),
(348,212,o),
(323,203,cs),
(296,194,o),
(268,336,o),
(241,336,c),
(238,337,o),
(235,337,o),
(231,339,c),
(232,342,o),
(234,344,o),
(237,346,cs),
(277,375,o),
(367,479,o),
(406,510,cs),
(450,545,o),
(495,561,o),
(542,552,cs),
(562,549,o),
(583,546,o),
(603,542,cs),
(630,538,o),
(657,533,o),
(685,529,cs),
(715,523,l),
(714,529,o),
(711,533,o),
(708,537,cs),
(685,564,o),
(662,592,o),
(638,618,c),
(637,620,o),
(635,622,o),
(634,623,c),
(552,608,o),
(464,620,o),
(391,580,c),
(392,561,o),
(403,571,o),
(408,557,c),
(398,558,o),
(388,558,o),
(378,559,c),
(357,516,o),
(325,481,o),
(301,439,cs),
(278,400,o),
(217,435,o),
(240,475,cs),
(260,509,o),
(288,539,o),
(307,574,c),
(292,577,ls),
(283,578,o),
(273,574,o),
(263,572,c),
(272,624,ls),
(276,641,o),
(279,658,o),
(283,675,c),
(283,690,l),
(281,689,o),
(279,687,o),
(279,684,c),
(267,643,o),
(255,603,o),
(244,561,cs),
(238,542,o),
(229,539,o),
(219,531,c),
(227,555,o),
(233,575,o),
(239,594,cs),
(246,614,o),
(252,633,o),
(259,653,cs),
(278,714,ls),
(283,734,o),
(288,755,o),
(294,775,c),
(292,777,l),
(268,699,ls),
(263,684,o),
(256,671,o),
(252,656,cs),
(238,614,o),
(225,571,o),
(212,528,cs),
(209,518,l),
(207,522,l),
(206,528,l),
(199,518,o),
(192,508,o),
(184,500,cs),
(180,495,o),
(178,492,o),
(181,482,cs),
(183,476,o),
(182,470,o),
(181,465,cs),
(178,455,o),
(174,446,o),
(170,437,cs),
(169,435,o),
(167,433,o),
(164,433,cs),
(157,432,o),
(150,432,o),
(143,431,cs),
(142,431,o),
(140,432,o),
(138,432,cs),
(134,432,o),
(129,432,o),
(125,432,cs),
(119,432,ls),
(111,433,o),
(103,436,o),
(96,434,cs),
(89,433,o),
(83,427,o),
(77,424,cs),
(74,422,o),
(69,422,o),
(66,424,c),
(65,431,o),
(65,438,o),
(65,445,c),
(60,454,l),
(83,491,o),
(104,527,o),
(126,563,c),
(124,571,l),
(118,565,o),
(113,558,o),
(109,551,cs),
(94,524,o),
(80,492,o),
(60,482,c),
(56,479,o),
(53,476,o),
(51,472,cs),
(42,456,ls),
(26,432,o),
(11,408,o),
(-4,383,cs),
(-7,378,o),
(-9,367,o),
(-11,358,c),
(-6,354,o),
(-2,347,o),
(2,346,cs),
(41,338,o),
(79,344,o),
(118,350,cs),
(126,352,o),
(134,353,o),
(143,354,c),
(137,333,o),
(131,315,o),
(126,297,cs),
(118,268,o),
(104,245,o),
(101,208,cs),
(101,206,o),
(100,204,o),
(99,202,cs),
(86,179,o),
(81,147,o),
(74,116,cs),
(70,99,o),
(75,91,o),
(81,85,cs),
(88,77,o),
(97,72,o),
(105,65,cs),
(114,57,o),
(124,46,o),
(134,40,cs),
(156,27,o),
(178,16,o),
(201,4,cs),
(206,2,o),
(211,0,o),
(216,-1,c)
);
},
{
closed = 1;
nodes = (
(433,190,o),
(436,199,o),
(444,200,cs),
(454,201,o),
(465,204,o),
(475,205,cs),
(476,205,o),
(479,199,o),
(479,196,cs),
(480,189,o),
(481,180,o),
(475,179,cs),
(461,177,o),
(447,175,o),
(432,172,c)
);
}
);
width = 689;
}
);
note = K;
unicode = (75,107);
},
{
glyphname = L;
lastChange = "2022-12-26 01:22:25 +0000";
layers = (
{
layerId = m01;
shapes = (
{
closed = 1;
nodes = (
(44,-28,o),
(49,-7,o),
(57,13,c),
(57,11,o),
(58,10,o),
(58,8,cs),
(58,-9,o),
(59,19,o),
(59,56,c),
(60,33,o),
(60,9,o),
(61,-14,c),
(66,-14,l),
(67,-4,o),
(69,6,o),
(70,16,cs),
(71,28,o),
(71,40,o),
(71,52,c),
(72,54,o),
(72,56,o),
(72,58,c),
(74,58,l),
(75,63,o),
(76,69,o),
(78,74,c),
(84,83,o),
(95,87,o),
(112,86,c),
(110,82,o),
(109,78,o),
(108,74,c),
(112,71,l),
(114,76,o),
(118,80,o),
(121,84,c),
(125,87,o),
(130,92,o),
(135,92,cs),
(176,89,o),
(218,84,o),
(260,91,cs),
(291,96,o),
(323,96,o),
(355,100,c),
(361,100,o),
(372,96,o),
(370,110,c),
(374,112,o),
(379,113,o),
(383,112,cs),
(387,112,o),
(390,109,o),
(393,107,c),
(429,108,o),
(467,109,o),
(504,112,cs),
(525,114,o),
(547,117,o),
(568,122,cs),
(572,123,o),
(576,129,o),
(581,133,c),
(576,138,o),
(573,145,o),
(567,146,cs),
(552,149,o),
(535,151,o),
(519,153,cs),
(478,158,o),
(436,164,o),
(394,167,cs),
(339,171,o),
(284,172,o),
(229,174,cs),
(210,174,o),
(190,173,o),
(171,174,cs),
(165,174,o),
(159,178,o),
(149,181,c),
(120,175,l),
(121,183,o),
(122,190,o),
(124,198,c),
(138,198,l),
(127,206,l),
(132,219,o),
(146,226,o),
(160,224,c),
(162,229,o),
(166,234,o),
(169,238,c),
(178,245,o),
(177,251,o),
(166,254,cs),
(153,258,o),
(139,262,o),
(124,264,cs),
(115,266,o),
(106,263,o),
(96,264,c),
(102,272,o),
(117,261,o),
(117,276,cs),
(117,282,o),
(109,289,o),
(106,295,c),
(132,288,l),
(134,288,l),
(140,291,l),
(82,313,l),
(88,344,o),
(80,375,o),
(93,404,c),
(85,399,o),
(77,393,o),
(68,389,cs),
(36,372,o),
(17,352,o),
(19,312,cs),
(21,263,o),
(15,214,o),
(13,166,cs),
(13,163,o),
(13,161,o),
(14,159,c),
(60,162,l),
(60,172,o),
(60,176,o),
(61,167,cs),
(61,162,l),
(109,165,l),
(110,160,l),
(93,157,o),
(77,155,o),
(61,153,c),
(62,129,o),
(63,106,o),
(64,82,c),
(59,73,l),
(59,102,o),
(60,134,o),
(60,153,c),
(58,153,l),
(37,150,ls),
(12,147,o),
(12,147,o),
(11,124,cs),
(9,83,o),
(6,42,o),
(4,1,c),
(6,5,o),
(7,8,o),
(8,12,c),
(13,12,l),
(13,11,l),
(17,24,o),
(19,38,o),
(21,52,cs),
(24,80,o),
(27,52,o),
(30,18,c),
(27,11,o),
(23,4,o),
(20,-2,c),
(27,-18,l),
(32,-18,l),
(32,-17,o),
(32,-16,o),
(33,-15,c),
(36,-49,o),
(38,-76,o),
(42,-49,cs)
);
},
{
closed = 1;
nodes = (
(3,-29,l),
(9,-21,o),
(15,-12,o),
(20,-2,c),
(13,11,l),
(12,4,o),
(10,-3,o),
(8,-9,cs),
(7,-12,o),
(5,-14,o),
(3,-17,c),
(4,-11,o),
(4,-5,o),
(4,1,c),
(1,-6,o),
(-1,-14,o),
(-2,-22,cs),
(-2,-23,l),
(-3,-25,o),
(-4,-26,o),
(-5,-27,c),
(-4,-68,o),
(-2,-122,o),
(0,-81,cs)
);
},
{
closed = 1;
nodes = (
(-12,-34,o),
(-8,-31,o),
(-5,-27,c),
(-7,3,o),
(-8,26,o),
(-10,-5,cs),
(-11,-16,o),
(-13,-27,o),
(-15,-38,c)
);
},
{
closed = 1;
nodes = (
(42,42,ls),
(42,49,o),
(45,54,o),
(50,55,c),
(47,50,o),
(44,45,o),
(42,40,c)
);
},
{
closed = 1;
nodes = (
(61,153,l),
(61,162,l),
(60,162,l),
(60,153,l)
);
},
{
closed = 1;
nodes = (
(123,223,l),
(123,254,l),
(127,258,l),
(133,253,o),
(144,246,o),
(143,243,cs),
(140,235,o),
(133,228,o),
(127,221,c)
);
},
{
closed = 1;
nodes = (
(135,435,ls),
(139,438,o),
(140,443,o),
(141,447,cs),
(141,449,o),
(135,452,o),
(131,453,c),
(126,453,o),
(121,454,o),
(115,455,c),
(113,451,o),
(111,446,o),
(110,441,c),
(106,431,o),
(102,421,o),
(97,411,c),
(95,409,o),
(94,407,o),
(93,404,c)
);
},
{
closed = 1;
nodes = (
(132,493,o),
(159,522,o),
(184,553,cs),
(189,558,o),
(192,565,o),
(193,571,c),
(179,560,l),
(178,563,o),
(176,566,o),
(176,567,c),
(155,524,l),
(149,528,l),
(169,569,o),
(190,610,o),
(212,653,c),
(169,648,l),
(176,629,o),
(173,626,o),
(155,628,cs),
(140,629,o),
(124,631,o),
(109,635,cs),
(54,651,o),
(97,641,o),
(43,645,cs),
(34,645,o),
(32,640,o),
(32,632,cs),
(31,601,o),
(31,570,o),
(28,540,cs),
(27,518,o),
(39,508,o),
(53,496,cs),
(59,491,o),
(67,486,o),
(73,480,cs),
(85,469,o),
(99,460,o),
(115,455,c)
);
}
);
width = 589;
}
);
note = L;
unicode = (76,108);
},
{
glyphname = M;
lastChange = "2022-12-26 01:22:26 +0000";
layers = (
{
layerId = m01;
shapes = (
{
closed = 1;
nodes = (
(152,31,o),
(150,63,o),
(152,93,c),
(142,109,o),
(135,128,o),
(135,141,c),
(142,137,o),
(149,132,o),
(154,125,c),
(154,128,o),
(154,132,o),
(154,135,c),
(153,135,l),
(147,156,o),
(140,178,o),
(133,199,c),
(138,201,l),
(151,192,l),
(154,193,l),
(136,260,l),
(142,262,l),
(158,238,l),
(159,245,o),
(159,253,o),
(159,260,c),
(148,280,o),
(143,302,o),
(143,324,c),
(147,320,o),
(151,316,o),
(154,311,c),
(160,296,l),
(160,304,o),
(161,312,o),
(161,321,c),
(154,339,o),
(151,358,o),
(151,377,c),
(156,371,o),
(160,365,o),
(164,358,c),
(167,377,l),
(160,394,o),
(157,412,o),
(159,431,c),
(164,423,o),
(168,416,o),
(172,408,c),
(175,421,l),
(167,440,o),
(166,461,o),
(164,484,c),
(172,472,o),
(179,460,o),
(182,446,c),
(183,447,o),
(183,447,o),
(183,447,c),
(183,454,ls),
(183,457,o),
(183,460,o),
(184,463,c),
(176,482,o),
(174,504,o),
(178,524,c),
(187,507,l),
(188,499,o),
(190,491,o),
(191,483,c),
(193,485,o),
(194,488,o),
(195,490,c),
(187,507,l),
(180,560,l),
(183,561,l),
(190,547,l),
(187,587,l),
(198,576,l),
(199,582,o),
(200,587,o),
(201,596,c),
(206,587,o),
(209,580,o),
(214,570,c),
(214,596,l),
(217,597,l),
(235,565,l),
(237,554,o),
(239,542,o),
(242,530,c),
(237,528,l),
(219,556,l),
(222,542,o),
(223,533,o),
(224,523,c),
(219,521,l),
(207,544,l),
(205,543,l),
(211,509,l),
(207,508,l),
(204,512,o),
(201,516,o),
(196,524,c),
(197,513,o),
(199,504,o),
(200,496,c),
(215,514,o),
(237,526,o),
(260,528,c),
(245,538,o),
(244,555,o),
(235,565,c),
(232,592,l),
(236,594,l),
(254,565,l),
(256,580,l),
(262,583,l),
(264,577,o),
(266,570,o),
(270,566,cs),
(274,562,o),
(284,562,o),
(287,558,c),
(293,545,o),
(303,534,o),
(316,527,cs),
(330,520,o),
(342,510,o),
(352,498,c),
(352,497,o),
(355,498,o),
(356,498,c),
(358,499,o),
(359,500,o),
(360,501,c),
(344,517,o),
(329,533,o),
(314,549,cs),
(306,556,o),
(299,563,o),
(293,571,cs),
(287,578,o),
(284,588,o),
(279,595,cs),
(274,603,o),
(268,610,o),
(261,616,cs),
(237,639,o),
(213,662,o),
(188,685,cs),
(184,688,o),
(176,687,o),
(170,689,c),
(170,681,o),
(164,683,o),
(159,681,c),
(162,675,o),
(164,669,o),
(166,663,c),
(166,656,l),
(152,675,l),
(142,652,o),
(119,639,o),
(117,613,c),
(99,598,o),
(148,575,o),
(146,551,c),
(139,555,o),
(101,549,o),
(106,542,cs),
(111,534,l),
(121,539,o),
(132,542,o),
(143,544,c),
(137,532,o),
(131,521,o),
(126,509,c),
(127,505,o),
(129,502,o),
(131,499,c),
(130,498,o),
(129,497,o),
(127,497,c),
(126,499,o),
(125,502,o),
(123,504,c),
(120,497,ls),
(119,494,o),
(117,491,o),
(116,488,c),
(115,487,o),
(114,486,o),
(113,485,cs),
(115,487,l),
(114,484,o),
(112,480,o),
(110,477,c),
(111,477,o),
(111,476,o),
(111,476,c),
(111,476,o),
(110,476,o),
(110,477,c),
(94,442,o),
(77,407,o),
(62,372,cs),
(40,325,o),
(21,277,o),
(0,229,cs),
(-9,207,o),
(-18,185,o),
(-28,162,c),
(-24,164,o),
(-20,167,o),
(-18,170,cs),
(11,203,o),
(9,206,o),
(38,173,cs),
(49,161,o),
(52,144,o),
(60,129,cs),
(63,123,o),
(67,118,o),
(72,114,cs),
(82,106,o),
(96,100,o),
(104,90,cs),
(117,71,o),
(130,52,o),
(141,31,cs),
(147,21,o),
(154,12,o),
(163,4,c)
);
},
{
closed = 1;
nodes = (
(81,340,l),
(83,339,o),
(82,338,o),
(79,337,c)
);
},
{
closed = 1;
nodes = (
(69,408,o),
(122,431,o),
(97,428,c),
(103,430,o),
(109,430,o),
(114,429,cs),
(130,424,o),
(78,413,o),
(86,399,c)
);
},
{
closed = 1;
nodes = (
(110,480,o),
(111,483,o),
(113,485,cs),
(110,482,o),
(108,480,o),
(110,477,c)
);
},
{
closed = 1;
nodes = (
(130,492,o),
(129,494,o),
(128,495,c),
(129,496,o),
(131,497,o),
(132,497,c),
(133,496,o),
(134,494,o),
(135,492,c),
(131,490,l)
);
},
{
closed = 1;
nodes = (
(124,505,o),
(125,507,o),
(126,509,c),
(111,534,l),
(109,532,o),
(108,531,o),
(109,529,cs),
(114,521,o),
(118,512,o),
(123,504,c)
);
},
{
closed = 1;
nodes = (
(143,507,o),
(142,510,o),
(141,512,c),
(146,510,o),
(145,508,o),
(141,505,c)
);
},
{
closed = 1;
nodes = (
(147,544,o),
(147,544,o),
(147,545,c),
(150,545,o),
(151,545,o),
(148,544,cs)
);
},
{
closed = 1;
nodes = (
(341,381,o),
(343,417,o),
(345,454,c),
(333,455,l),
(332,345,l),
(340,344,l)
);
},
{
closed = 1;
nodes = (
(322,373,l),
(323,405,o),
(324,437,o),
(326,470,c),
(313,470,l),
(313,373,l)
);
},
{
closed = 1;
nodes = (
(303,394,l),
(307,496,l),
(298,496,l),
(291,482,l),
(297,394,l)
);
},
{
closed = 1;
nodes = (
(156,586,o),
(152,599,o),
(147,611,c),
(151,613,l),
(164,575,l),
(161,574,l)
);
},
{
closed = 1;
nodes = (
(359,343,l),
(363,449,l),
(352,449,l),
(352,414,o),
(351,379,o),
(350,343,c)
);
},
{
closed = 1;
nodes = (
(597,171,l),
(603,176,l),
(622,135,l),
(615,130,l)
);
},
{
closed = 1;
nodes = (
(379,316,l),
(380,363,o),
(381,410,o),
(383,458,c),
(373,458,l),
(371,316,l)
);
},
{
closed = 1;
nodes = (
(284,449,l),
(287,461,o),
(289,472,o),
(291,483,c),
(285,498,o),
(280,514,o),
(274,530,c),
(275,503,o),
(277,476,o),
(278,449,c)
);
},
{
closed = 1;
nodes = (
(399,324,l),
(403,472,l),
(393,472,l),
(392,422,o),
(392,373,o),
(391,324,c)
);
},
{
closed = 1;
nodes = (
(272,529,l),
(267,538,o),
(262,547,o),
(257,556,c),
(263,529,l)
);
},
{
closed = 1;
nodes = (
(420,377,l),
(422,421,o),
(423,464,o),
(424,508,c),
(415,509,l),
(412,377,l)
);
},
{
closed = 1;
nodes = (
(625,40,o),
(620,87,o),
(636,128,cs),
(651,166,o),
(648,215,o),
(653,260,c),
(657,259,l),
(654,222,l),
(659,225,o),
(663,230,o),
(663,236,cs),
(667,273,o),
(669,311,o),
(672,348,cs),
(673,360,o),
(676,371,o),
(677,383,c),
(684,381,l),
(684,370,o),
(684,359,o),
(683,348,c),
(689,346,l),
(690,348,o),
(690,350,o),
(690,353,cs),
(687,384,o),
(684,416,o),
(674,442,cs),
(658,479,o),
(624,502,o),
(598,525,cs),
(593,530,o),
(590,536,o),
(588,543,c),
(577,551,o),
(567,561,o),
(557,571,cs),
(547,580,o),
(540,593,o),
(531,604,cs),
(521,618,o),
(510,630,o),
(500,644,cs),
(491,658,o),
(483,675,o),
(474,690,cs),
(468,700,o),
(467,658,o),
(467,606,c),
(493,551,o),
(521,497,o),
(549,443,cs),
(553,434,o),
(559,426,o),
(566,419,cs),
(575,409,o),
(585,402,o),
(598,390,c),
(598,350,ls),
(594,263,o),
(589,175,o),
(585,87,cs),
(585,80,o),
(586,67,o),
(590,64,cs),
(604,54,o),
(602,39,o),
(601,23,cs),
(600,17,o),
(601,10,o),
(601,3,c),
(607,2,l)
);
},
{
closed = 1;
nodes = (
(468,430,o),
(466,529,o),
(467,606,c),
(461,619,ls),
(449,642,o),
(446,595,o),
(443,544,c),
(436,544,l),
(435,517,o),
(435,489,o),
(434,462,c),
(430,458,o),
(427,453,o),
(424,449,c),
(429,439,o),
(432,441,o),
(434,450,c),
(442,450,l),
(443,456,o),
(443,461,o),
(443,467,c),
(448,467,o),
(453,460,o),
(460,446,cs)
);
}
);
width = 690;
}
);
note = M;
unicode = (77,109);
},
{
glyphname = N;
lastChange = "2022-12-26 01:22:28 +0000";
layers = (
{
layerId = m01;
shapes = (
{
closed = 1;
nodes = (
(160,76,o),
(165,102,o),
(175,127,cs),
(205,199,l),
(202,233,o),
(198,268,o),
(194,302,c),
(210,300,l),
(213,277,o),
(216,253,o),
(219,229,c),
(237,267,ls),
(267,327,o),
(284,395,o),
(346,434,cs),
(374,451,o),
(401,470,o),
(428,488,c),
(437,492,o),
(446,496,o),
(456,498,c),
(593,624,ls),
(601,632,o),
(611,646,o),
(609,653,cs),
(600,680,o),
(618,692,o),
(634,706,c),
(652,726,l),
(647,734,l),
(588,720,o),
(550,667,o),
(491,647,cs),
(437,627,o),
(393,576,o),
(345,539,c),
(341,544,l),
(379,577,l),
(369,579,o),
(360,579,o),
(355,574,cs),
(316,542,o),
(278,508,o),
(239,475,cs),
(226,465,o),
(212,456,o),
(198,447,c),
(192,457,l),
(224,489,l),
(219,498,l),
(187,468,o),
(207,500,o),
(234,541,c),
(203,514,o),
(172,488,o),
(140,461,c),
(135,467,l),
(162,493,o),
(190,518,o),
(216,545,cs),
(224,554,o),
(228,568,o),
(235,578,cs),
(240,586,o),
(246,592,o),
(254,596,c),
(258,596,o),
(262,595,o),
(266,592,c),
(287,631,o),
(299,660,o),
(264,644,cs),
(178,603,o),
(92,559,o),
(12,506,c),
(16,498,l),
(173,571,l),
(164,521,o),
(141,486,o),
(91,461,c),
(128,509,l),
(113,527,o),
(101,526,o),
(85,513,cs),
(72,504,o),
(57,499,o),
(42,497,cs),
(21,494,o),
(12,489,o),
(13,464,cs),
(19,373,o),
(23,282,o),
(27,191,cs),
(29,155,o),
(27,119,o),
(28,84,cs),
(29,76,o),
(36,63,o),
(42,62,cs),
(79,55,o),
(118,50,o),
(151,46,c)
);
},
{
closed = 1;
nodes = (
(29,238,l),
(35,330,l),
(40,298,o),
(44,266,o),
(49,234,c)
);
},
{
closed = 1;
nodes = (
(59,246,l),
(56,283,o),
(52,319,o),
(49,356,c),
(62,354,l),
(68,317,o),
(73,280,o),
(78,243,c)
);
},
{
closed = 1;
nodes = (
(91,245,l),
(79,353,l),
(94,351,l),
(109,242,l)
);
},
{
closed = 1;
nodes = (
(126,230,l),
(122,279,o),
(117,328,o),
(112,377,c),
(126,376,l),
(132,326,o),
(139,276,o),
(145,226,c)
);
},
{
closed = 1;
nodes = (
(164,207,l),
(159,260,o),
(155,313,o),
(150,365,c),
(164,363,l),
(170,310,o),
(177,257,o),
(183,203,c)
);
},
{
closed = 1;
nodes = (
(294,330,o),
(381,396,o),
(463,458,c),
(462,461,o),
(462,463,o),
(461,466,cs),
(460,473,ls),
(459,482,o),
(458,490,o),
(457,498,c),
(456,498,l),
(414,459,o),
(372,421,o),
(330,383,cs),
(314,368,o),
(300,353,o),
(292,344,c)
);
},
{
closed = 1;
nodes = (
(514,80,o),
(534,157,o),
(551,234,cs),
(571,327,o),
(589,420,o),
(606,513,cs),
(609,528,o),
(609,543,o),
(606,558,cs),
(605,568,o),
(536,514,o),
(463,458,c),
(468,438,o),
(473,418,o),
(476,398,cs),
(478,377,o),
(475,355,o),
(475,334,cs),
(476,308,o),
(479,283,o),
(477,257,cs),
(476,232,o),
(470,207,o),
(467,182,cs),
(462,138,o),
(460,93,o),
(452,49,cs),
(445,7,o),
(450,-1,o),
(495,4,c)
);
},
{
closed = 1;
nodes = (
(245,550,o),
(255,560,o),
(265,569,cs),
(270,574,o),
(271,581,o),
(270,588,c),
(269,590,o),
(267,591,o),
(266,592,c),
(234,541,l)
);
},
{
closed = 1;
nodes = (
(266,529,o),
(297,555,o),
(327,582,c),
(329,585,o),
(331,588,o),
(332,591,c),
(327,595,l),
(228,510,l),
(235,503,l)
);
},
{
closed = 1;
nodes = (
(487,560,l),
(502,622,l),
(515,619,l),
(500,557,l)
);
}
);
width = 608;
}
);
note = N;
unicode = (78,110,209,241);
},
{
glyphname = O;
lastChange = "2022-12-26 01:22:30 +0000";
layers = (
{
layerId = m01;
shapes = (
{
closed = 1;
nodes = (
(506,49,o),
(509,52,o),
(513,55,cs),
(572,101,o),
(638,145,o),
(708,176,c),
(699,178,o),
(691,184,o),
(685,191,cs),
(676,202,o),
(668,214,o),
(659,224,c),
(659,232,l),
(663,233,o),
(667,235,o),
(671,236,c),
(695,238,o),
(719,239,o),
(744,243,cs),
(802,253,o),
(861,279,o),
(920,300,cs),
(943,308,o),
(965,318,o),
(986,326,c),
(981,332,l),
(959,323,o),
(937,313,o),
(915,306,cs),
(868,292,o),
(821,279,o),
(775,267,cs),
(742,259,o),
(710,252,o),
(678,246,cs),
(663,243,o),
(662,247,o),
(671,262,c),
(682,265,o),
(693,269,o),
(703,271,cs),
(722,274,o),
(740,277,o),
(758,281,cs),
(786,286,o),
(814,291,o),
(842,297,cs),
(855,300,o),
(868,304,o),
(881,307,c),
(864,307,o),
(847,307,o),
(830,305,cs),
(790,300,o),
(750,294,o),
(710,289,cs),
(683,286,o),
(683,287,o),
(688,314,c),
(688,314,o),
(688,315,o),
(689,315,c),
(683,318,l),
(689,320,l),
(690,324,o),
(691,328,o),
(692,332,cs),
(707,421,l),
(703,420,l),
(702,413,o),
(700,407,o),
(699,400,cs),
(678,300,ls),
(677,294,o),
(674,290,o),
(670,286,c),
(664,285,o),
(659,284,o),
(653,284,c),
(655,283,l),
(634,276,o),
(629,262,o),
(584,267,c),
(563,264,l),
(553,261,o),
(541,256,o),
(530,253,c),
(522,258,l),
(485,255,l),
(486,257,o),
(486,258,o),
(487,259,c),
(538,265,l),
(538,264,o),
(537,263,o),
(537,263,c),
(547,265,l),
(547,266,l),
(552,266,l),
(591,276,l),
(559,272,o),
(526,269,o),
(494,266,cs),
(481,265,o),
(466,262,o),
(455,265,cs),
(444,268,o),
(434,272,o),
(423,275,c),
(416,273,o),
(410,272,o),
(403,271,c),
(411,267,o),
(421,263,o),
(431,259,c),
(400,253,l),
(400,252,o),
(400,251,o),
(399,251,cs),
(413,252,o),
(426,254,o),
(439,254,cs),
(446,254,o),
(453,254,o),
(460,253,c),
(459,252,o),
(459,251,o),
(458,249,c),
(415,243,o),
(371,235,o),
(328,230,cs),
(315,229,o),
(299,226,o),
(290,235,cs),
(286,240,o),
(275,237,o),
(269,240,cs),
(258,244,o),
(247,250,o),
(237,257,cs),
(233,260,o),
(229,264,o),
(227,269,c),
(222,271,o),
(217,274,o),
(214,278,c),
(210,274,l),
(215,268,o),
(221,262,o),
(227,256,cs),
(230,253,o),
(234,249,o),
(239,247,c),
(245,243,o),
(245,242,o),
(234,232,c),
(234,235,o),
(233,239,o),
(232,242,c),
(223,238,l),
(202,248,l),
(196,249,o),
(188,248,o),
(182,251,cs),
(170,257,o),
(159,264,o),
(148,272,cs),
(137,280,o),
(126,289,o),
(116,298,cs),
(113,301,o),
(110,303,o),
(107,305,cs),
(102,310,o),
(95,312,o),
(88,312,cs),
(85,312,o),
(82,311,o),
(79,311,c),
(82,314,l),
(108,321,o),
(134,327,o),
(160,334,c),
(162,358,o),
(165,382,o),
(170,406,cs),
(178,444,o),
(190,494,o),
(220,523,c),
(217,532,o),
(215,540,o),
(213,549,cs),
(212,554,o),
(213,558,o),
(214,563,c),
(255,565,l),
(255,566,l),
(273,563,l),
(281,564,o),
(290,563,o),
(298,562,c),
(308,559,o),
(318,555,o),
(328,551,c),
(329,550,o),
(331,550,o),
(333,550,c),
(343,547,o),
(353,545,o),
(363,542,cs),
(370,539,o),
(377,536,o),
(384,531,cs),
(405,517,o),
(426,502,o),
(447,487,cs),
(460,478,o),
(472,468,o),
(487,457,c),
(478,476,o),
(479,481,o),
(497,499,cs),
(503,505,o),
(512,508,o),
(519,513,cs),
(525,517,o),
(534,523,o),
(536,528,cs),
(548,554,o),
(559,579,o),
(570,605,cs),
(575,617,o),
(568,619,o),
(559,618,c),
(553,616,o),
(547,613,o),
(542,610,cs),
(521,597,o),
(499,585,o),
(478,572,cs),
(473,569,o),
(466,564,o),
(465,561,c),
(465,556,o),
(466,551,o),
(468,546,cs),
(469,544,o),
(473,544,o),
(473,541,cs),
(475,522,o),
(476,503,o),
(477,483,c),
(473,481,l),
(467,503,l),
(464,501,l),
(461,493,l),
(441,513,o),
(422,533,o),
(403,553,cs),
(388,568,o),
(372,582,o),
(355,596,cs),
(335,611,o),
(313,624,o),
(290,635,cs),
(274,643,o),
(254,645,o),
(235,648,cs),
(225,649,o),
(216,642,o),
(208,630,cs),
(192,602,o),
(175,575,o),
(159,547,cs),
(144,521,o),
(125,496,o),
(121,470,cs),
(120,461,o),
(119,452,o),
(119,443,cs),
(119,438,o),
(119,433,o),
(120,428,c),
(119,422,o),
(125,417,o),
(124,413,cs),
(118,398,o),
(104,395,o),
(94,390,c),
(110,413,l),
(108,414,l),
(101,408,l),
(103,413,l),
(83,411,l),
(75,401,o),
(64,387,o),
(52,373,c),
(51,374,o),
(50,374,o),
(50,376,c),
(49,377,o),
(48,378,o),
(48,380,c),
(26,354,o),
(7,325,o),
(5,292,c),
(-3,287,o),
(-10,281,o),
(-16,274,c),
(-21,263,o),
(-15,248,o),
(-6,241,cs),
(1,236,o),
(9,231,o),
(17,228,c),
(18,224,o),
(20,220,o),
(20,216,c),
(22,209,o),
(24,202,o),
(25,194,c),
(48,191,o),
(70,191,o),
(93,193,cs),
(97,193,o),
(101,194,o),
(106,194,c),
(326,113,l),
(367,129,o),
(408,145,o),
(465,154,c),
(473,150,l),
(345,106,l),
(359,100,l),
(361,100,l),
(381,105,o),
(401,109,o),
(421,112,c),
(429,109,l),
(380,92,l),
(421,77,o),
(462,61,o),
(502,45,c)
);
},
{
closed = 1;
nodes = (
(315,129,l),
(453,178,l),
(445,178,o),
(438,179,o),
(430,180,c),
(383,164,l),
(370,169,l),
(409,181,l),
(391,183,o),
(372,184,o),
(353,185,cs),
(332,185,o),
(304,171,o),
(287,176,cs),
(260,182,o),
(234,191,o),
(209,203,c),
(225,205,o),
(240,206,o),
(255,208,cs),
(332,215,o),
(409,221,o),
(485,227,c),
(504,234,o),
(523,236,o),
(543,234,c),
(543,235,l),
(543,234,l),
(596,246,l),
(603,243,l),
(513,212,l),
(508,213,l),
(505,207,o),
(503,201,o),
(501,195,c),
(525,203,l),
(538,198,l),
(496,183,l),
(495,180,o),
(495,178,o),
(493,176,c),
(488,175,o),
(482,175,o),
(476,176,c),
(330,123,l)
);
},
{
closed = 1;
nodes = (
(543,234,l),
(514,226,l),
(512,224,o),
(511,221,o),
(510,219,c)
);
},
{
closed = 1;
nodes = (
(645,251,l),
(646,256,l),
(667,261,l),
(658,246,l)
);
},
{
closed = 1;
nodes = (
(630,285,l),
(631,288,o),
(632,290,o),
(633,291,c),
(627,292,o),
(621,291,o),
(619,294,cs),
(611,304,o),
(606,317,o),
(599,328,cs),
(586,346,o),
(572,364,o),
(558,382,cs),
(544,400,o),
(528,416,o),
(513,433,c),
(512,433,o),
(512,432,o),
(511,431,c),
(595,309,l),
(589,302,l),
(612,283,l),
(610,281,l)
);
}
);
width = 975;
}
);
note = O;
unicode = (79,111,210,211,212,213,214,216,242,243,244,245,246,248);
},
{
glyphname = P;
lastChange = "2022-12-26 01:22:34 +0000";
layers = (
{
layerId = m01;
shapes = (
{
closed = 1;
nodes = (
(-37,-12,o),
(-34,-8,o),
(-32,-3,cs),
(-26,9,o),
(-22,22,o),
(-8,23,c),
(-5,24,o),
(1,32,o),
(4,38,cs),
(36,104,o),
(67,170,o),
(99,236,cs),
(104,248,o),
(111,259,o),
(114,266,c),
(128,269,o),
(137,270,o),
(147,273,cs),
(155,276,o),
(162,279,o),
(168,284,cs),
(212,314,o),
(255,345,o),
(298,377,cs),
(317,391,o),
(336,406,o),
(355,421,c),
(358,417,o),
(361,413,o),
(364,410,cs),
(380,392,o),
(391,369,o),
(406,347,c),
(430,428,o),
(452,507,o),
(475,588,c),
(465,586,l),
(467,596,o),
(469,603,o),
(472,612,c),
(440,595,l),
(437,598,l),
(440,616,o),
(456,634,o),
(435,652,c),
(432,645,o),
(430,639,o),
(426,631,c),
(397,659,l),
(391,635,l),
(357,655,l),
(354,647,l),
(349,662,o),
(345,678,o),
(339,694,cs),
(338,696,o),
(332,697,o),
(328,696,cs),
(311,689,o),
(294,680,o),
(277,673,cs),
(233,654,o),
(189,636,o),
(145,619,cs),
(133,614,o),
(131,608,o),
(132,596,cs),
(132,587,o),
(130,577,o),
(127,569,cs),
(122,557,o),
(123,550,o),
(133,546,c),
(153,577,l),
(145,544,o),
(130,524,o),
(106,508,c),
(114,542,o),
(121,576,o),
(129,610,c),
(125,610,l),
(106,555,o),
(91,498,o),
(79,441,cs),
(66,384,o),
(62,327,o),
(35,271,c),
(40,270,l),
(52,295,l),
(57,294,l),
(54,284,o),
(51,274,o),
(47,265,cs),
(35,237,o),
(22,208,o),
(9,180,c),
(8,175,o),
(8,170,o),
(10,166,c),
(14,175,o),
(18,185,o),
(23,194,c),
(25,193,l),
(11,158,o),
(-10,123,o),
(-15,89,cs),
(-20,52,o),
(-42,20,o),
(-44,-16,c),
(-40,-17,l)
);
},
{
closed = 1;
nodes = (
(-2,89,l),
(26,111,l),
(29,104,l),
(1,82,l)
);
},
{
closed = 1;
nodes = (
(107,418,l),
(140,491,l),
(144,489,l),
(114,421,l),
(112,419,o),
(111,417,o),
(109,416,c)
);
},
{
closed = 1;
nodes = (
(104,451,o),
(101,455,o),
(101,458,cs),
(102,463,o),
(105,468,o),
(108,472,cs),
(113,478,o),
(118,484,o),
(122,490,cs),
(133,510,o),
(143,531,o),
(153,552,c),
(157,550,l),
(115,458,ls),
(113,454,o),
(110,452,o),
(106,451,cs)
);
},
{
closed = 1;
nodes = (
(164,375,o),
(165,381,o),
(167,387,cs),
(173,406,o),
(180,425,o),
(186,444,cs),
(200,486,o),
(231,511,o),
(257,541,cs),
(277,563,o),
(298,585,o),
(319,606,cs),
(322,609,o),
(324,611,o),
(327,614,c),
(330,605,l),
(333,568,o),
(341,531,o),
(339,495,cs),
(337,480,o),
(339,464,o),
(342,450,c),
(333,445,o),
(325,439,o),
(316,434,cs),
(304,427,o),
(293,418,o),
(281,412,cs),
(269,405,o),
(256,401,o),
(244,395,cs),
(234,391,o),
(224,384,o),
(213,381,cs),
(202,378,o),
(191,375,o),
(180,374,c),
(179,373,o),
(177,373,o),
(176,373,c),
(172,371,o),
(168,370,o),
(164,369,c)
);
}
);
width = 446;
}
);
note = P;
unicode = (80,112);
},
{
glyphname = Q;
lastChange = "2022-12-26 01:22:35 +0000";
layers = (
{
layerId = m01;
shapes = (
{
closed = 1;
nodes = (
(639,-35,o),
(646,-34,o),
(652,-31,cs),
(656,-28,o),
(658,-23,o),
(657,-18,c),
(654,-11,o),
(650,-4,o),
(645,2,cs),
(621,36,o),
(596,70,o),
(571,105,cs),
(561,120,o),
(550,135,o),
(540,151,c),
(543,156,ls),
(555,178,o),
(565,201,o),
(571,225,c),
(501,319,ls),
(443,397,o),
(385,475,o),
(328,553,cs),
(312,577,o),
(298,601,o),
(283,624,cs),
(281,628,o),
(280,632,o),
(282,636,cs),
(290,655,o),
(298,673,o),
(307,692,c),
(304,692,o),
(300,692,o),
(299,691,cs),
(292,680,o),
(285,668,o),
(278,656,c),
(276,654,o),
(273,652,o),
(270,650,c),
(266,653,o),
(263,655,o),
(260,658,cs),
(245,678,o),
(232,698,o),
(215,717,cs),
(177,761,o),
(124,798,o),
(75,837,cs),
(56,852,o),
(36,866,o),
(18,880,c),
(17,878,o),
(17,875,o),
(16,873,c),
(35,859,o),
(55,845,o),
(72,830,cs),
(109,797,o),
(144,764,o),
(179,731,cs),
(203,708,o),
(226,684,o),
(247,660,cs),
(258,648,o),
(255,645,o),
(237,645,c),
(213,668,ls),
(200,682,o),
(188,696,o),
(176,710,cs),
(157,731,o),
(138,752,o),
(118,773,cs),
(89,801,l),
(98,786,o),
(107,772,o),
(118,758,cs),
(143,726,o),
(169,695,o),
(194,664,cs),
(210,643,o),
(210,643,o),
(184,633,cs),
(178,630,o),
(172,628,o),
(167,626,cs),
(83,593,l),
(86,590,l),
(92,592,o),
(99,594,o),
(105,596,cs),
(202,632,l),
(207,633,o),
(213,633,o),
(218,632,c),
(227,621,o),
(234,610,o),
(243,598,c),
(233,598,l),
(235,592,o),
(239,587,o),
(238,584,cs),
(232,572,o),
(224,561,o),
(219,549,cs),
(210,528,o),
(202,507,o),
(194,486,cs),
(187,465,o),
(181,443,o),
(174,421,c),
(177,420,l),
(238,555,l),
(246,554,l),
(248,565,o),
(249,574,o),
(250,584,c),
(255,583,l),
(258,581,o),
(261,578,o),
(263,575,cs),
(284,548,o),
(306,520,o),
(327,492,cs),
(335,481,o),
(344,470,o),
(347,459,cs),
(351,449,o),
(353,438,o),
(356,427,c),
(371,412,l),
(369,421,o),
(367,431,o),
(366,442,c),
(387,419,l),
(389,419,l),
(381,430,o),
(372,441,o),
(365,452,cs),
(361,458,o),
(358,464,o),
(355,470,c),
(359,470,l),
(388,437,o),
(417,403,o),
(444,369,cs),
(452,359,o),
(463,347,o),
(459,334,cs),
(458,329,o),
(465,321,o),
(466,314,cs),
(469,302,o),
(470,290,o),
(469,278,cs),
(468,272,o),
(466,267,o),
(464,263,c),
(464,257,o),
(464,252,o),
(463,247,c),
(465,247,o),
(467,246,o),
(468,246,c),
(471,254,o),
(472,262,o),
(474,270,c),
(476,274,o),
(477,279,o),
(477,284,cs),
(476,292,o),
(477,293,o),
(492,289,c),
(483,281,l),
(492,276,l),
(493,268,o),
(494,261,o),
(494,253,c),
(497,247,o),
(502,240,o),
(503,234,cs),
(504,221,o),
(504,207,o),
(503,194,cs),
(500,174,l),
(453,204,o),
(409,223,o),
(378,272,cs),
(368,288,o),
(360,304,o),
(353,321,c),
(337,296,o),
(325,271,o),
(324,246,cs),
(323,237,o),
(328,228,o),
(330,218,c),
(317,215,o),
(324,212,o),
(329,208,cs),
(343,199,o),
(356,189,o),
(370,180,c),
(369,180,l),
(417,159,l),
(403,153,o),
(389,148,o),
(376,143,cs),
(340,130,o),
(291,114,o),
(250,124,c),
(244,117,o),
(239,111,o),
(232,104,c),
(220,98,l),
(197,132,l),
(196,132,l),
(189,149,l),
(184,155,o),
(180,162,o),
(177,170,cs),
(174,180,o),
(172,191,o),
(171,201,c),
(170,203,o),
(169,205,o),
(169,206,c),
(166,216,o),
(162,226,o),
(160,236,cs),
(158,244,o),
(158,251,o),
(158,259,cs),
(159,285,o),
(161,311,o),
(162,337,cs),
(164,352,o),
(165,368,o),
(167,386,c),
(156,369,o),
(151,367,o),
(127,373,cs),
(118,375,o),
(111,381,o),
(103,385,cs),
(96,388,o),
(87,392,o),
(81,391,cs),
(53,388,o),
(26,384,o),
(-2,380,cs),
(-15,378,o),
(-13,371,o),
(-7,364,cs),
(-3,360,o),
(2,356,o),
(8,354,c),
(74,318,l),
(79,316,o),
(87,312,o),
(90,313,cs),
(94,315,o),
(98,319,o),
(101,323,cs),
(103,325,o),
(101,329,o),
(103,330,c),
(118,342,o),
(134,353,o),
(150,364,c),
(154,362,l),
(139,345,l),
(142,344,l),
(150,346,l),
(143,318,o),
(136,291,o),
(130,264,cs),
(124,244,o),
(120,223,o),
(118,202,cs),
(116,176,o),
(116,150,o),
(118,125,cs),
(120,107,o),
(129,89,o),
(136,72,cs),
(140,63,o),
(151,58,o),
(166,58,cs),
(198,59,o),
(230,59,o),
(262,59,cs),
(292,60,o),
(324,57,o),
(347,68,cs),
(356,72,o),
(364,75,o),
(372,79,c),
(384,88,l),
(390,91,o),
(390,99,o),
(395,99,c),
(411,102,o),
(421,92,o),
(430,86,c),
(402,88,l),
(402,87,o),
(403,86,o),
(403,86,c),
(411,82,l),
(405,81,l),
(418,66,l),
(428,65,l),
(433,68,ls),
(446,77,o),
(459,84,o),
(471,91,c),
(476,88,o),
(482,87,o),
(489,87,cs),
(496,88,o),
(503,97,o),
(512,104,c),
(514,103,o),
(516,102,o),
(517,101,cs),
(530,91,o),
(541,82,o),
(555,73,cs),
(561,69,o),
(573,68,o),
(578,64,c),
(599,40,o),
(611,14,o),
(606,-18,cs),
(606,-21,o),
(608,-24,o),
(611,-25,c),
(617,-29,o),
(625,-32,o),
(632,-33,cs)
);
},
{
closed = 1;
nodes = (
(355,212,l),
(360,216,l),
(366,214,o),
(372,212,o),
(377,209,cs),
(384,205,o),
(390,200,o),
(396,195,c),
(388,207,l),
(390,207,l),
(417,189,l),
(420,194,l),
(423,195,l),
(437,169,l),
(432,166,l),
(408,184,l),
(422,167,l),
(420,166,l)
);
},
{
closed = 1;
nodes = (
(326,503,o),
(315,517,o),
(305,530,c),
(311,531,l),
(340,490,l),
(336,489,l)
);
},
{
closed = 1;
nodes = (
(276,567,l),
(279,568,l),
(303,539,l),
(299,537,l)
);
},
{
closed = 1;
nodes = (
(240,642,l),
(258,642,l),
(259,637,o),
(260,633,o),
(260,628,c),
(255,627,l)
);
},
{
closed = 1;
nodes = (
(287,592,o),
(284,601,o),
(281,610,c),
(302,591,o),
(303,588,o),
(290,581,c)
);
}
);
width = 667;
}
);
note = Q;
unicode = (81,113);
},
{
glyphname = R;
lastChange = "2022-12-26 01:22:38 +0000";
layers = (
{
layerId = m01;
shapes = (
{
closed = 1;
nodes = (
(131,-46,o),
(138,-42,o),
(145,-39,c),
(139,-35,o),
(138,-34,o),
(136,-33,cs),
(130,-30,l),
(146,-27,o),
(148,-24,o),
(141,-13,c),
(149,-2,l),
(134,6,l),
(149,6,o),
(153,11,o),
(148,19,c),
(152,40,l),
(147,41,l),
(155,46,o),
(164,52,o),
(148,59,c),
(156,65,o),
(166,69,o),
(156,75,c),
(160,96,l),
(163,103,o),
(169,109,o),
(156,115,c),
(164,121,o),
(172,126,o),
(158,133,c),
(168,138,o),
(171,144,o),
(161,152,c),
(172,158,o),
(171,164,o),
(167,171,c),
(169,210,l),
(173,214,o),
(174,251,o),
(169,256,c),
(170,266,o),
(172,275,o),
(172,284,cs),
(172,293,o),
(170,301,o),
(170,309,cs),
(170,317,l),
(181,316,o),
(192,313,o),
(203,309,cs),
(220,302,o),
(236,290,o),
(252,279,c),
(252,278,o),
(251,276,o),
(250,274,c),
(197,277,l),
(199,271,o),
(202,266,o),
(206,265,cs),
(272,256,l),
(278,256,o),
(284,255,o),
(290,252,cs),
(308,240,o),
(325,227,o),
(342,214,c),
(347,209,o),
(352,204,o),
(357,198,c),
(355,193,l),
(339,193,o),
(324,194,o),
(308,195,c),
(292,199,o),
(276,203,o),
(260,208,c),
(260,203,o),
(263,198,o),
(268,195,c),
(287,187,o),
(306,179,o),
(326,173,cs),
(341,168,o),
(358,165,o),
(373,178,cs),
(375,180,o),
(381,178,o),
(384,175,cs),
(396,165,o),
(408,154,o),
(419,143,cs),
(484,81,ls),
(495,70,o),
(506,59,o),
(517,47,cs),
(524,39,o),
(531,31,o),
(539,24,cs),
(545,20,o),
(553,18,o),
(560,19,cs),
(562,19,o),
(564,27,o),
(567,34,c),
(560,32,o),
(558,32,o),
(556,32,c),
(556,31,l),
(554,31,o),
(553,30,o),
(550,30,c),
(559,43,o),
(558,46,o),
(546,50,c),
(545,54,o),
(545,58,o),
(544,63,c),
(528,58,l),
(538,69,o),
(537,75,o),
(528,78,c),
(517,95,l),
(512,92,l),
(514,101,o),
(516,112,o),
(500,105,c),
(501,115,o),
(505,125,o),
(494,123,c),
(489,130,o),
(486,135,o),
(482,140,c),
(479,147,o),
(479,155,o),
(466,150,c),
(468,160,o),
(470,169,o),
(454,165,c),
(458,175,o),
(456,182,o),
(443,180,c),
(447,192,o),
(442,196,o),
(434,198,c),
(408,227,l),
(408,233,o),
(382,259,o),
(376,259,c),
(369,268,o),
(364,275,o),
(358,282,cs),
(352,288,o),
(345,292,o),
(339,298,cs),
(336,301,l),
(353,315,o),
(370,329,o),
(387,343,cs),
(471,418,l),
(473,419,o),
(473,421,o),
(473,423,c),
(462,441,o),
(510,482,o),
(499,501,cs),
(498,503,o),
(500,504,o),
(505,505,cs),
(522,508,ls),
(521,508,o),
(521,509,o),
(521,509,c),
(497,507,l),
(488,526,l),
(486,534,o),
(480,540,o),
(470,546,cs),
(463,550,o),
(453,550,o),
(445,546,c),
(441,543,o),
(436,540,o),
(433,536,cs),
(426,527,o),
(420,518,o),
(414,509,c),
(400,508,o),
(407,502,o),
(398,498,c),
(398,508,o),
(398,517,o),
(400,526,cs),
(402,540,o),
(406,553,o),
(408,567,cs),
(408,572,o),
(405,578,o),
(404,584,c),
(416,583,o),
(427,581,o),
(439,580,cs),
(451,579,o),
(462,577,o),
(474,576,cs),
(484,576,l),
(483,578,o),
(481,578,o),
(480,579,c),
(452,584,o),
(424,590,o),
(396,595,cs),
(383,597,o),
(380,602,o),
(374,608,c),
(418,598,ls),
(431,595,o),
(444,592,o),
(458,589,cs),
(500,580,ls),
(514,578,o),
(528,575,o),
(542,573,c),
(543,574,l),
(489,586,ls),
(479,588,o),
(470,591,o),
(460,593,cs),
(431,600,o),
(402,606,o),
(372,612,c),
(370,613,o),
(368,613,o),
(365,613,c),
(368,615,l),
(372,615,l),
(365,619,o),
(358,623,o),
(352,627,c),
(349,630,o),
(344,630,o),
(340,628,cs),
(336,627,o),
(332,627,o),
(329,628,cs),
(322,629,o),
(315,631,o),
(309,633,c),
(308,634,o),
(307,635,o),
(307,637,cs),
(306,641,o),
(305,645,o),
(305,649,cs),
(305,650,o),
(305,651,o),
(305,652,cs),
(305,660,l),
(304,661,o),
(304,662,o),
(304,663,cs),
(305,668,o),
(306,672,o),
(305,677,cs),
(304,680,o),
(300,684,o),
(298,687,cs),
(296,689,o),
(296,692,o),
(297,694,c),
(302,695,o),
(307,695,o),
(311,695,c),
(317,698,l),
(393,663,l),
(399,665,l),
(385,673,l),
(366,681,o),
(344,688,o),
(336,700,c),
(334,702,o),
(332,703,o),
(329,704,c),
(326,706,o),
(322,708,o),
(318,709,c),
(301,717,o),
(285,726,o),
(268,733,cs),
(262,735,o),
(256,736,o),
(250,737,c),
(248,734,o),
(243,731,o),
(243,728,c),
(238,706,o),
(244,683,o),
(249,661,cs),
(252,646,l),
(238,649,o),
(226,652,o),
(214,654,cs),
(193,658,o),
(177,665,o),
(153,665,cs),
(151,665,o),
(150,666,o),
(148,666,c),
(132,673,o),
(110,675,o),
(90,678,cs),
(78,680,o),
(72,677,o),
(68,673,cs),
(56,658,l),
(50,653,o),
(45,647,o),
(40,640,cs),
(32,627,o),
(25,613,o),
(18,600,c),
(17,597,o),
(15,594,o),
(14,591,c),
(16,591,l),
(43,631,l),
(47,630,l),
(49,620,o),
(51,609,o),
(54,598,c),
(56,599,o),
(59,600,o),
(61,601,cs),
(117,622,ls),
(131,627,o),
(147,632,o),
(163,636,cs),
(173,639,o),
(179,637,o),
(176,632,c),
(175,629,o),
(174,627,o),
(172,625,cs),
(153,606,o),
(126,588,o),
(100,569,cs),
(88,561,o),
(73,553,o),
(67,544,cs),
(61,536,o),
(61,526,o),
(65,517,cs),
(68,511,o),
(70,505,o),
(70,498,c),
(63,499,o),
(56,501,o),
(49,502,c),
(68,456,l),
(54,463,l),
(51,461,l),
(58,450,o),
(66,440,o),
(73,429,c),
(72,427,o),
(71,425,o),
(69,423,c),
(66,418,o),
(69,415,o),
(77,412,cs),
(83,410,l),
(90,393,o),
(92,375,o),
(96,357,c),
(91,355,l),
(55,394,l),
(52,390,o),
(51,384,o),
(53,379,c),
(66,362,o),
(80,344,o),
(94,327,cs),
(98,322,o),
(101,317,o),
(103,311,c),
(107,290,o),
(110,269,o),
(113,248,c),
(113,226,l),
(108,223,l),
(96,234,o),
(86,246,o),
(76,258,c),
(67,272,o),
(58,286,o),
(51,301,c),
(47,297,o),
(46,292,o),
(47,287,c),
(55,267,o),
(63,248,o),
(72,230,cs),
(80,216,o),
(90,201,o),
(110,200,cs),
(112,200,o),
(115,194,o),
(115,191,cs),
(117,175,o),
(117,158,o),
(118,142,cs),
(118,113,o),
(119,83,o),
(119,53,cs),
(120,37,o),
(119,21,o),
(119,5,cs),
(118,-5,o),
(118,-16,o),
(118,-27,c),
(120,-34,o),
(124,-40,o),
(129,-44,cs)
);
},
{
closed = 1;
nodes = (
(178,451,o),
(172,450,o),
(171,453,cs),
(165,478,l),
(177,478,o),
(183,477,o),
(184,472,cs),
(185,466,o),
(187,460,o),
(188,454,cs),
(188,453,o),
(185,452,o),
(182,451,c)
);
},
{
closed = 1;
nodes = (
(323,315,o),
(317,320,o),
(312,325,cs),
(301,335,o),
(289,344,o),
(276,352,cs),
(255,367,o),
(233,382,o),
(210,394,c),
(206,397,o),
(202,398,o),
(198,400,c),
(198,404,l),
(195,404,l),
(190,402,l),
(188,402,o),
(186,401,o),
(184,400,c),
(182,400,l),
(184,402,o),
(185,405,o),
(188,406,cs),
(198,411,o),
(199,415,o),
(195,420,c),
(180,414,l),
(174,442,l),
(193,442,l),
(180,526,l),
(183,526,l),
(199,463,l),
(201,464,o),
(201,465,o),
(201,466,cs),
(199,477,o),
(198,488,o),
(195,498,c),
(193,514,o),
(188,529,o),
(183,543,cs),
(176,558,o),
(172,574,o),
(171,590,cs),
(171,592,o),
(172,594,o),
(172,596,c),
(175,595,o),
(176,594,o),
(178,593,c),
(198,570,o),
(344,520,o),
(366,498,cs),
(391,473,o),
(343,425,o),
(339,397,cs),
(338,385,o),
(336,373,o),
(334,361,cs),
(328,313,ls),
(328,312,o),
(328,311,o),
(327,310,c)
);
}
);
width = 586;
}
);
note = R;
unicode = (82,114);
},
{
glyphname = S;
lastChange = "2022-12-26 01:22:40 +0000";
layers = (
{
layerId = m01;
shapes = (
{
closed = 1;
nodes = (
(93,-48,l),
(93,-63,l),
(96,-65,l),
(106,-49,o),
(113,-31,o),
(126,-17,cs),
(132,-11,o),
(138,-5,o),
(145,0,c),
(105,-4,l),
(99,3,l),
(115,7,o),
(121,19,o),
(152,7,c),
(154,7,l),
(158,10,o),
(163,13,o),
(167,17,c),
(173,18,l),
(175,16,l),
(172,8,l),
(178,10,o),
(184,11,o),
(190,12,c),
(191,15,o),
(192,17,o),
(194,20,c),
(201,21,l),
(197,26,l),
(197,27,o),
(198,27,o),
(198,28,c),
(194,29,o),
(190,30,o),
(186,32,c),
(147,28,l),
(146,30,o),
(144,31,o),
(143,33,c),
(196,45,l),
(216,39,o),
(248,45,o),
(260,58,c),
(217,51,l),
(241,67,l),
(219,62,l),
(217,64,l),
(203,60,l),
(197,66,l),
(264,82,l),
(270,85,o),
(276,88,o),
(283,90,c),
(287,87,l),
(309,93,l),
(309,94,o),
(308,95,o),
(308,97,c),
(369,111,l),
(360,119,l),
(263,95,l),
(256,95,l),
(251,100,l),
(335,119,l),
(338,121,l),
(363,127,o),
(387,135,o),
(413,141,c),
(404,149,l),
(317,129,l),
(310,129,o),
(302,128,o),
(295,128,c),
(290,133,l),
(365,149,l),
(377,150,o),
(388,153,o),
(400,156,cs),
(415,159,l),
(418,160,l),
(417,161,l),
(422,163,o),
(427,165,o),
(432,168,c),
(448,153,o),
(465,138,o),
(482,123,cs),
(488,118,o),
(494,114,o),
(501,110,c),
(504,112,l),
(497,124,l),
(484,139,o),
(472,153,o),
(459,167,cs),
(456,170,o),
(453,173,o),
(451,176,c),
(452,177,l),
(452,177,o),
(451,177,o),
(451,178,c),
(451,177,o),
(450,177,o),
(450,177,c),
(447,181,o),
(443,184,o),
(440,188,c),
(446,189,o),
(451,191,o),
(456,193,c),
(480,172,o),
(504,151,o),
(529,131,cs),
(539,122,o),
(551,114,o),
(563,108,cs),
(569,105,o),
(577,105,o),
(587,104,c),
(581,108,o),
(575,113,o),
(569,118,cs),
(490,193,l),
(497,195,o),
(503,198,o),
(509,202,cs),
(515,206,o),
(519,213,o),
(521,219,c),
(521,221,o),
(515,226,o),
(509,231,c),
(508,225,o),
(508,223,o),
(508,220,c),
(507,219,o),
(507,217,o),
(507,214,c),
(498,227,o),
(495,227,o),
(487,217,c),
(474,219,l),
(481,210,l),
(479,209,o),
(477,208,o),
(476,208,c),
(473,210,o),
(471,212,o),
(469,214,cs),
(466,217,l),
(473,219,o),
(480,222,o),
(486,225,c),
(479,234,l),
(453,229,l),
(448,234,o),
(444,238,o),
(439,242,c),
(496,248,l),
(487,259,l),
(430,251,l),
(372,306,ls),
(361,316,o),
(361,316,o),
(348,307,cs),
(337,299,ls),
(328,292,o),
(318,285,o),
(309,279,c),
(307,282,l),
(355,321,l),
(354,323,o),
(353,324,o),
(352,325,cs),
(329,347,o),
(305,368,o),
(284,392,cs),
(266,411,o),
(249,413,o),
(226,406,cs),
(208,402,o),
(191,399,o),
(173,398,cs),
(170,398,o),
(167,399,o),
(165,401,cs),
(164,402,o),
(166,406,o),
(167,408,c),
(177,419,o),
(182,433,o),
(182,447,cs),
(182,453,o),
(184,459,o),
(185,464,cs),
(186,476,o),
(187,486,o),
(177,496,cs),
(173,499,o),
(170,502,o),
(166,506,c),
(195,511,l),
(190,516,l),
(179,516,o),
(168,515,o),
(157,515,c),
(145,526,l),
(226,543,l),
(220,548,l),
(191,548,o),
(162,544,o),
(133,538,c),
(130,542,o),
(127,543,o),
(123,539,cs),
(119,535,l),
(97,528,o),
(81,521,o),
(79,512,c),
(100,517,l),
(96,513,o),
(92,509,o),
(87,505,c),
(75,502,o),
(63,498,o),
(51,493,c),
(58,485,l),
(70,488,l),
(66,484,o),
(62,479,o),
(59,475,c),
(50,473,o),
(42,470,o),
(35,466,c),
(42,457,l),
(48,458,l),
(45,453,o),
(41,449,o),
(37,444,c),
(25,443,l),
(31,436,l),
(23,427,o),
(20,428,o),
(15,440,c),
(8,434,o),
(0,429,o),
(-7,423,c),
(79,392,l),
(77,387,l),
(48,398,l),
(48,398,o),
(49,396,o),
(49,394,c),
(38,393,l),
(42,390,o),
(46,388,o),
(50,388,cs),
(79,384,o),
(109,383,o),
(136,368,cs),
(142,365,o),
(149,362,o),
(156,360,cs),
(178,353,o),
(189,332,o),
(206,320,c),
(200,307,o),
(195,295,o),
(189,284,c),
(193,284,l),
(194,286,l),
(204,301,l),
(205,296,o),
(204,290,o),
(207,287,cs),
(213,280,o),
(216,292,o),
(222,290,c),
(218,285,o),
(212,283,o),
(208,278,cs),
(193,254,ls),
(190,248,o),
(192,245,o),
(199,245,cs),
(203,245,o),
(206,244,o),
(210,243,c),
(215,250,o),
(225,253,o),
(234,249,c),
(233,247,o),
(232,244,o),
(232,240,c),
(239,247,l),
(251,238,l),
(236,229,l),
(261,225,o),
(285,221,o),
(309,218,cs),
(320,216,o),
(330,208,o),
(333,197,c),
(337,193,o),
(342,188,o),
(346,185,c),
(346,184,o),
(346,184,o),
(347,184,cs),
(326,180,l),
(331,175,l),
(337,175,o),
(343,175,o),
(348,176,c),
(348,171,l),
(349,170,l),
(360,172,l),
(361,172,l),
(362,173,l),
(369,174,l),
(367,175,o),
(366,175,o),
(365,176,cs),
(364,177,l),
(368,177,o),
(371,177,o),
(375,177,c),
(375,175,l),
(397,179,l),
(396,180,l),
(403,180,o),
(409,181,o),
(415,182,c),
(424,175,l),
(361,162,l),
(359,162,o),
(358,161,o),
(357,161,cs),
(352,160,l),
(351,161,l),
(343,161,o),
(334,160,o),
(326,160,c),
(321,165,l),
(327,166,l),
(319,172,o),
(314,168,o),
(310,163,c),
(273,148,l),
(268,150,o),
(234,135,o),
(232,128,c),
(222,125,o),
(213,123,o),
(204,119,cs),
(197,116,o),
(190,111,o),
(183,107,cs),
(171,102,o),
(159,97,o),
(148,91,cs),
(135,84,o),
(123,76,o),
(111,67,cs),
(90,52,o),
(68,37,o),
(48,19,cs),
(33,6,o),
(31,2,o),
(37,-10,c),
(14,-16,l),
(18,-20,l),
(40,-17,l),
(41,-18,o),
(41,-20,o),
(42,-22,c),
(43,-22,o),
(43,-22,o),
(43,-23,c),
(64,-18,l),
(73,-25,l),
(46,-30,l),
(47,-32,o),
(47,-34,o),
(48,-36,c),
(52,-51,o),
(55,-67,o),
(59,-84,c)
);
},
{
closed = 1;
nodes = (
(160,-34,o),
(165,-33,o),
(169,-29,c),
(186,4,l),
(170,3,l),
(155,-33,l)
);
},
{
closed = 1;
nodes = (
(201,34,l),
(202,36,o),
(203,37,o),
(203,38,c),
(186,32,l)
);
},
{
closed = 1;
nodes = (
(246,1,o),
(251,2,o),
(255,6,cs),
(270,20,o),
(283,36,o),
(296,52,cs),
(304,64,l),
(276,59,l),
(274,54,o),
(272,48,o),
(269,43,cs),
(260,29,o),
(251,15,o),
(241,2,c)
);
},
{
closed = 1;
nodes = (
(282,74,l),
(281,72,o),
(281,70,o),
(280,67,c),
(308,73,l),
(308,75,o),
(309,77,o),
(309,79,c),
(323,82,l),
(316,89,l),
(239,73,l),
(240,71,o),
(242,69,o),
(244,67,c)
);
},
{
closed = 1;
nodes = (
(221,256,o),
(215,257,o),
(209,259,c),
(208,260,o),
(210,268,o),
(210,273,c),
(214,273,l),
(227,259,l),
(227,256,l)
);
},
{
closed = 1;
nodes = (
(342,169,ls),
(341,169,o),
(341,169,o),
(341,170,c),
(339,171,o),
(337,173,o),
(335,175,c),
(333,174,o),
(331,172,o),
(329,167,c)
);
},
{
closed = 1;
nodes = (
(333,208,l),
(338,214,o),
(342,214,o),
(347,210,cs),
(353,204,o),
(359,199,o),
(365,195,cs),
(374,189,l),
(354,185,l)
);
},
{
closed = 1;
nodes = (
(379,196,o),
(377,202,o),
(375,208,c),
(381,208,l),
(387,206,o),
(392,203,o),
(397,199,c),
(398,197,o),
(400,196,o),
(402,194,c),
(381,190,l)
);
},
{
closed = 1;
nodes = (
(407,224,o),
(404,227,o),
(402,230,cs),
(401,231,o),
(401,232,o),
(400,233,c),
(418,223,l),
(410,221,l)
);
},
{
closed = 1;
nodes = (
(420,210,l),
(424,211,o),
(429,211,o),
(434,212,c),
(434,211,o),
(435,211,o),
(435,211,c),
(445,202,l),
(430,199,l)
);
},
{
closed = 1;
nodes = (
(265,576,l),
(259,581,l),
(199,581,o),
(158,561,o),
(108,551,c),
(117,542,l)
);
},
{
closed = 1;
nodes = (
(319,610,l),
(311,618,l),
(152,580,l),
(161,572,l)
);
},
{
closed = 1;
nodes = (
(282,618,l),
(277,624,l),
(198,610,l),
(205,602,l)
);
},
{
closed = 1;
nodes = (
(330,644,l),
(311,653,o),
(274,647,o),
(261,633,c)
);
},
{
closed = 1;
nodes = (
(373,643,l),
(369,648,l),
(330,644,l),
(298,633,l),
(304,628,l)
);
},
{
closed = 1;
nodes = (
(338,666,o),
(355,672,o),
(364,669,cs),
(395,657,o),
(401,669,o),
(417,673,c),
(411,680,l),
(320,671,l),
(322,668,o),
(324,666,o),
(325,664,c)
);
},
{
closed = 1;
nodes = (
(507,707,l),
(503,711,l),
(443,702,l),
(452,694,l)
);
}
);
width = 599;
}
);
note = S;
unicode = (83,115);
},
{
glyphname = T;
lastChange = "2022-12-26 01:22:41 +0000";
layers = (
{
layerId = m01;
shapes = (
{
closed = 1;
nodes = (
(263,0,o),
(270,3,o),
(272,8,cs),
(279,28,o),
(284,49,o),
(288,70,cs),
(295,107,o),
(301,144,o),
(307,180,c),
(305,183,o),
(302,186,o),
(302,190,cs),
(302,194,o),
(304,199,o),
(306,203,c),
(320,199,o),
(317,210,o),
(318,216,cs),
(325,248,o),
(329,280,o),
(338,310,cs),
(349,351,o),
(349,393,o),
(351,434,cs),
(351,439,o),
(356,443,o),
(360,447,cs),
(364,450,o),
(369,453,o),
(374,455,c),
(373,456,o),
(372,458,o),
(372,459,c),
(359,457,l),
(360,483,o),
(374,495,o),
(398,493,cs),
(410,492,o),
(421,491,o),
(433,490,cs),
(464,490,l),
(464,496,l),
(395,505,l),
(395,517,o),
(400,521,o),
(410,521,cs),
(422,521,o),
(434,521,o),
(446,521,c),
(472,524,l),
(472,528,l),
(444,546,l),
(444,551,l),
(456,553,o),
(467,557,o),
(479,557,cs),
(537,556,o),
(595,554,o),
(653,552,c),
(689,555,l),
(689,561,l),
(683,564,o),
(677,566,o),
(670,568,cs),
(646,572,o),
(622,575,o),
(598,579,c),
(628,579,o),
(659,578,o),
(689,578,cs),
(710,578,o),
(731,581,o),
(752,585,cs),
(762,587,o),
(782,624,o),
(795,633,c),
(781,632,o),
(759,602,o),
(749,602,cs),
(538,617,ls),
(469,621,o),
(401,626,o),
(332,630,cs),
(312,631,o),
(310,631,o),
(305,614,c),
(350,618,l),
(356,611,l),
(340,608,o),
(334,595,o),
(303,607,c),
(302,600,o),
(300,593,o),
(299,586,c),
(298,585,l),
(308,586,l),
(312,581,l),
(297,578,l),
(298,574,o),
(300,577,o),
(297,564,c),
(292,566,l),
(292,570,o),
(293,574,o),
(293,577,c),
(244,566,l),
(237,571,l),
(269,582,l),
(200,571,l),
(213,586,o),
(250,591,o),
(269,582,c),
(270,583,l),
(269,582,l),
(294,585,l),
(295,593,o),
(294,600,o),
(295,608,c),
(286,607,o),
(274,603,o),
(264,602,c),
(259,609,l),
(295,612,l),
(296,619,o),
(296,625,o),
(298,631,c),
(295,631,o),
(293,632,o),
(291,632,cs),
(242,636,o),
(193,635,o),
(145,643,cs),
(105,649,o),
(83,633,o),
(63,603,cs),
(49,583,o),
(43,595,o),
(27,577,c),
(20,550,o),
(12,524,o),
(3,498,c),
(4,499,o),
(5,499,o),
(6,499,cs),
(17,501,o),
(28,504,o),
(38,509,cs),
(57,517,o),
(77,516,o),
(96,514,c),
(91,518,l),
(250,556,l),
(258,548,l),
(109,512,l),
(118,511,o),
(127,511,o),
(136,512,cs),
(157,516,o),
(178,519,o),
(199,519,c),
(204,514,l),
(140,499,l),
(152,452,l),
(156,457,l),
(156,460,l),
(152,486,l),
(158,482,o),
(163,474,o),
(170,473,cs),
(184,471,o),
(176,488,o),
(184,493,c),
(184,483,o),
(180,474,o),
(180,464,cs),
(181,450,o),
(183,436,o),
(186,421,cs),
(188,411,o),
(193,409,o),
(202,417,cs),
(206,420,o),
(211,422,o),
(216,425,c),
(216,439,o),
(224,451,o),
(238,455,c),
(240,452,o),
(242,449,o),
(244,443,c),
(247,458,l),
(269,459,l),
(265,447,o),
(262,436,o),
(261,431,c),
(263,421,o),
(266,414,o),
(265,407,cs),
(264,388,o),
(260,369,o),
(258,350,cs),
(254,295,o),
(249,241,o),
(246,186,cs),
(244,144,o),
(246,101,o),
(246,59,cs),
(246,43,o),
(246,27,o),
(248,11,cs),
(248,5,o),
(255,1,o),
(259,-4,c)
);
},
{
closed = 1;
nodes = (
(197,443,o),
(191,455,o),
(187,461,c),
(191,464,l),
(221,461,l),
(223,457,l),
(216,452,o),
(208,445,o),
(200,443,c)
);
},
{
closed = 1;
nodes = (
(137,548,l),
(216,562,l),
(222,557,l),
(145,541,l)
);
},
{
closed = 1;
nodes = (
(463,597,o),
(458,598,o),
(453,599,cs),
(452,599,o),
(451,600,o),
(449,600,c),
(456,602,o),
(463,601,o),
(468,597,c)
);
}
);
width = 752;
}
);
note = T;
unicode = (84,116);
},
{
glyphname = U;
lastChange = "2022-12-26 01:22:48 +0000";
layers = (
{
layerId = m01;
shapes = (
{
closed = 1;
nodes = (
(114,-99,o),
(123,-98,o),
(133,-95,cs),
(137,-94,o),
(141,-92,o),
(143,-88,cs),
(162,-52,o),
(196,-25,o),
(236,-4,cs),
(245,0,o),
(258,-2,o),
(268,1,cs),
(288,8,o),
(308,16,o),
(328,23,cs),
(336,26,l),
(340,16,o),
(341,5,o),
(347,2,cs),
(355,-1,o),
(368,3,o),
(378,4,c),
(381,5,o),
(384,6,o),
(387,8,c),
(408,15,o),
(416,32,o),
(428,46,cs),
(432,52,o),
(439,57,o),
(446,59,cs),
(478,66,o),
(511,72,o),
(544,78,cs),
(543,78,l),
(565,85,o),
(586,93,o),
(607,100,cs),
(616,103,o),
(625,105,o),
(614,111,c),
(624,122,o),
(636,131,o),
(643,142,cs),
(666,178,o),
(671,217,o),
(673,257,cs),
(674,313,o),
(673,369,o),
(674,425,cs),
(675,526,o),
(676,626,o),
(678,726,cs),
(679,756,o),
(683,786,o),
(687,816,cs),
(688,821,o),
(690,826,o),
(695,829,c),
(717,848,o),
(741,867,o),
(764,886,c),
(762,886,o),
(758,888,o),
(756,887,cs),
(707,853,l),
(702,851,o),
(698,849,o),
(693,848,c),
(692,852,o),
(690,855,o),
(690,859,cs),
(689,885,o),
(691,910,o),
(689,935,cs),
(683,993,o),
(658,1047,o),
(638,1101,cs),
(630,1122,o),
(620,1143,o),
(612,1162,c),
(604,1154,l),
(613,1134,o),
(623,1115,o),
(629,1094,cs),
(642,1049,o),
(653,1004,o),
(662,959,cs),
(669,927,o),
(674,895,o),
(678,864,cs),
(679,849,o),
(674,846,o),
(655,850,c),
(653,860,o),
(650,870,o),
(649,881,cs),
(646,899,o),
(645,918,o),
(643,936,cs),
(639,964,o),
(636,992,o),
(632,1020,cs),
(630,1032,o),
(627,1045,o),
(624,1057,c),
(622,1039,o),
(620,1021,o),
(620,1003,cs),
(621,962,o),
(624,922,o),
(625,881,cs),
(626,866,o),
(626,860,o),
(621,856,c),
(621,851,o),
(622,846,o),
(622,841,c),
(624,841,o),
(625,840,o),
(625,840,c),
(626,831,o),
(625,821,o),
(625,812,c),
(630,764,o),
(632,715,o),
(629,667,cs),
(629,659,ls),
(629,645,o),
(630,630,o),
(625,617,c),
(624,617,o),
(624,616,o),
(623,615,c),
(620,593,o),
(614,571,o),
(606,551,c),
(606,550,l),
(614,564,o),
(621,578,o),
(630,593,c),
(633,563,l),
(637,563,l),
(636,577,o),
(636,591,o),
(637,605,cs),
(637,612,o),
(639,620,o),
(641,627,c),
(646,627,l),
(649,583,o),
(653,539,o),
(654,495,cs),
(654,481,o),
(656,465,o),
(643,452,cs),
(636,446,o),
(638,435,o),
(634,428,cs),
(627,413,o),
(618,400,o),
(608,387,cs),
(603,381,o),
(597,376,o),
(591,371,c),
(590,366,o),
(590,362,o),
(589,358,c),
(595,364,o),
(601,370,o),
(607,377,c),
(613,381,o),
(617,387,o),
(622,393,cs),
(627,401,o),
(628,402,o),
(640,394,c),
(626,388,l),
(631,379,l),
(625,370,o),
(621,362,o),
(615,353,c),
(614,347,o),
(614,338,o),
(609,330,cs),
(600,315,o),
(589,300,o),
(577,286,cs),
(565,271,o),
(552,256,o),
(539,241,cs),
(527,228,o),
(517,214,o),
(524,194,c),
(521,196,o),
(515,197,o),
(514,199,c),
(513,207,o),
(511,215,o),
(510,222,c),
(509,222,l),
(489,211,o),
(470,199,o),
(450,187,c),
(451,187,o),
(450,187,o),
(449,186,cs),
(446,184,o),
(444,183,o),
(442,181,c),
(396,224,l),
(395,223,l),
(377,248,l),
(367,257,o),
(358,267,o),
(350,278,cs),
(341,294,o),
(334,311,o),
(327,327,c),
(325,330,o),
(323,332,o),
(322,335,c),
(312,350,o),
(303,364,o),
(295,380,cs),
(289,392,o),
(284,405,o),
(281,418,cs),
(269,463,o),
(258,507,o),
(247,552,cs),
(241,578,o),
(236,605,o),
(229,638,c),
(223,602,o),
(217,596,o),
(182,594,cs),
(171,593,o),
(158,599,o),
(146,600,cs),
(135,601,o),
(121,604,o),
(114,599,cs),
(79,579,o),
(46,557,o),
(12,536,cs),
(-4,526,o),
(2,515,o),
(13,507,cs),
(19,502,o),
(29,500,o),
(38,497,c),
(141,473,ls),
(149,471,o),
(162,470,o),
(165,473,cs),
(171,479,o),
(172,488,o),
(175,496,cs),
(176,500,o),
(172,505,o),
(173,508,c),
(218,592,l),
(224,590,l),
(212,553,l),
(218,552,l),
(227,560,l),
(232,509,o),
(236,460,o),
(242,411,cs),
(245,374,o),
(251,336,o),
(258,299,cs),
(268,255,o),
(281,212,o),
(297,170,cs),
(309,142,o),
(329,115,o),
(348,90,c),
(348,89,o),
(349,88,o),
(349,88,c),
(325,72,o),
(300,56,o),
(275,41,cs),
(223,8,o),
(170,-24,o),
(118,-57,cs),
(109,-63,o),
(99,-69,o),
(91,-76,c),
(87,-81,o),
(82,-88,o),
(84,-93,cs),
(86,-96,o),
(97,-99,o),
(104,-99,cs)
);
},
{
closed = 1;
nodes = (
(500,107,l),
(503,105,l),
(502,104,o),
(502,102,o),
(501,99,c),
(544,114,l),
(544,113,o),
(545,113,o),
(545,112,c),
(529,102,l),
(539,105,o),
(548,110,o),
(559,113,cs),
(567,114,o),
(574,116,o),
(582,117,c),
(585,111,l),
(481,74,l),
(479,76,l),
(507,92,l),
(452,72,l)
);
},
{
closed = 1;
nodes = (
(564,164,l),
(584,185,l),
(588,182,l),
(567,161,l)
);
},
{
closed = 1;
nodes = (
(636,706,l),
(643,706,l),
(642,688,o),
(642,671,o),
(641,653,c),
(636,653,l)
);
},
{
closed = 1;
nodes = (
(635,754,l),
(639,754,l),
(641,716,l),
(635,716,l)
);
},
{
closed = 1;
nodes = (
(665,779,o),
(669,789,o),
(673,800,c),
(681,774,o),
(679,771,o),
(661,767,cs),
(660,767,l)
);
},
{
closed = 1;
nodes = (
(659,832,o),
(658,838,o),
(656,846,c),
(675,842,l),
(666,825,l),
(660,825,l)
);
}
);
width = 690;
}
);
note = U;
unicode = (85,117,217,218,219,220,249,250,251,252);
},
{
glyphname = V;
lastChange = "2022-12-26 01:22:51 +0000";
layers = (
{
layerId = m01;
shapes = (
{
closed = 1;
nodes = (
(336,58,l),
(340,48,o),
(343,43,o),
(345,38,c),
(351,38,l),
(353,64,o),
(353,91,o),
(360,115,cs),
(368,140,o),
(383,163,o),
(395,187,c),
(403,185,l),
(406,111,l),
(413,114,o),
(420,120,o),
(420,125,cs),
(423,156,o),
(423,187,o),
(425,217,c),
(424,226,o),
(426,234,o),
(429,242,c),
(443,267,o),
(459,292,o),
(475,317,cs),
(481,325,o),
(487,333,o),
(495,340,c),
(502,338,l),
(503,317,o),
(506,295,o),
(505,273,cs),
(503,250,o),
(497,228,o),
(493,206,c),
(500,207,o),
(506,212,o),
(509,218,cs),
(519,245,o),
(527,272,o),
(534,300,cs),
(538,322,o),
(540,346,o),
(521,365,cs),
(519,367,o),
(520,376,o),
(523,380,cs),
(547,411,l),
(543,415,o),
(538,419,o),
(538,422,cs),
(538,431,o),
(544,440,o),
(547,448,cs),
(551,462,l),
(556,459,o),
(564,457,o),
(564,455,cs),
(565,447,o),
(564,440,o),
(564,432,c),
(582,455,o),
(600,477,o),
(618,499,c),
(613,510,o),
(620,524,o),
(637,530,c),
(637,523,l),
(638,524,o),
(640,526,o),
(641,528,c),
(655,545,o),
(670,561,o),
(685,578,cs),
(694,589,o),
(706,599,o),
(714,611,cs),
(719,618,o),
(719,630,o),
(718,639,cs),
(718,642,o),
(707,644,o),
(697,648,c),
(700,639,o),
(700,636,o),
(701,633,cs),
(702,631,o),
(703,628,o),
(704,624,c),
(685,636,o),
(681,634,o),
(678,617,c),
(659,612,l),
(668,591,l),
(652,604,o),
(644,602,o),
(641,589,c),
(619,571,l),
(620,570,o),
(622,568,o),
(623,566,c),
(611,566,o),
(596,569,o),
(606,548,c),
(593,548,o),
(579,552,o),
(583,538,c),
(561,518,l),
(552,514,o),
(540,513,o),
(548,495,c),
(535,497,o),
(522,498,o),
(530,478,c),
(515,481,o),
(506,478,o),
(509,461,c),
(493,465,o),
(489,457,o),
(487,447,c),
(449,407,l),
(441,406,o),
(408,368,o),
(409,359,c),
(398,349,o),
(388,341,o),
(380,332,cs),
(372,323,o),
(367,313,o),
(360,304,cs),
(349,290,o),
(336,278,o),
(326,264,cs),
(318,252,o),
(310,241,o),
(302,229,c),
(293,260,ls),
(287,277,o),
(278,292,o),
(272,308,cs),
(267,319,o),
(265,331,o),
(260,341,cs),
(255,352,o),
(248,363,o),
(240,375,c),
(244,384,o),
(223,430,o),
(216,434,c),
(204,457,l),
(236,371,l),
(240,366,o),
(242,359,o),
(243,353,c),
(247,341,l),
(240,331,l),
(237,340,l),
(231,337,o),
(222,336,o),
(209,339,c),
(225,369,l),
(213,396,o),
(201,423,o),
(194,457,c),
(191,455,o),
(187,453,o),
(184,453,c),
(212,381,l),
(205,371,l),
(174,452,l),
(166,457,l),
(170,464,l),
(162,484,o),
(155,504,o),
(147,523,c),
(153,532,l),
(175,475,l),
(188,498,l),
(184,501,o),
(179,502,o),
(174,502,c),
(183,518,o),
(175,523,o),
(159,524,c),
(173,542,o),
(160,544,o),
(147,547,c),
(157,558,o),
(153,563,o),
(147,568,c),
(136,565,l),
(129,568,l),
(129,570,o),
(128,572,o),
(128,574,c),
(130,578,o),
(132,581,o),
(133,585,c),
(126,597,l),
(134,610,o),
(119,610,o),
(106,613,c),
(123,631,o),
(108,633,o),
(96,636,c),
(101,640,l),
(85,663,l),
(86,676,o),
(79,680,o),
(60,673,c),
(74,691,l),
(58,700,l),
(60,718,o),
(56,721,o),
(35,715,c),
(37,719,o),
(39,721,o),
(40,723,c),
(42,725,o),
(43,728,o),
(49,735,c),
(38,735,o),
(27,736,o),
(26,734,cs),
(22,725,o),
(19,714,o),
(21,705,cs),
(25,692,o),
(33,680,o),
(39,667,c),
(29,701,l),
(30,703,o),
(32,704,o),
(33,706,c),
(53,653,l),
(49,647,l),
(67,604,ls),
(73,591,o),
(78,577,o),
(84,563,c),
(72,614,l),
(79,621,l),
(84,606,o),
(97,601,o),
(89,569,cs),
(87,560,o),
(96,544,o),
(99,531,c),
(98,530,l),
(113,491,ls),
(122,470,o),
(130,450,o),
(137,429,cs),
(139,424,o),
(138,415,o),
(135,414,c),
(111,401,o),
(106,378,o),
(104,355,cs),
(102,327,o),
(102,298,o),
(104,270,cs),
(105,263,o),
(109,257,o),
(116,253,c),
(118,276,o),
(119,299,o),
(124,321,cs),
(129,342,o),
(138,362,o),
(145,383,c),
(153,383,l),
(158,374,o),
(162,364,o),
(165,355,cs),
(173,326,o),
(181,298,o),
(188,269,c),
(188,261,o),
(187,252,o),
(184,244,c),
(177,215,o),
(168,185,o),
(162,155,c),
(160,150,o),
(165,143,o),
(172,138,c),
(196,207,l),
(204,207,l),
(208,181,o),
(217,154,o),
(217,128,cs),
(217,102,o),
(208,77,o),
(203,51,c),
(208,50,l),
(223,66,l),
(223,42,o),
(223,21,o),
(224,-2,c),
(280,38,l),
(292,23,o),
(303,9,o),
(315,-7,c)
);
},
{
closed = 1;
nodes = (
(245,168,o),
(245,188,o),
(283,201,c),
(283,165,l)
);
},
{
closed = 1;
nodes = (
(322,115,o),
(313,125,o),
(313,127,c),
(315,133,o),
(322,137,o),
(326,141,c),
(333,138,l),
(343,113,ls),
(345,108,o),
(344,104,o),
(328,112,cs)
);
},
{
closed = 1;
nodes = (
(264,235,o),
(269,245,o),
(275,256,c),
(302,227,o),
(293,209,o),
(258,225,c)
);
},
{
closed = 1;
nodes = (
(162,438,o),
(153,463,o),
(145,489,c),
(150,495,l),
(159,470,o),
(167,445,o),
(176,421,c),
(170,412,l)
);
},
{
closed = 1;
nodes = (
(345,251,o),
(348,275,o),
(380,288,c),
(380,243,l)
);
},
{
closed = 1;
nodes = (
(122,483,o),
(112,518,o),
(118,538,c),
(118,539,l),
(110,577,l),
(114,581,l),
(138,515,l),
(134,508,l),
(118,539,l),
(118,538,l),
(125,517,o),
(131,495,o),
(138,471,c)
);
},
{
closed = 1;
nodes = (
(432,342,o),
(454,358,o),
(474,374,c),
(474,326,l),
(465,326,l)
);
}
);
width = 679;
}
);
note = V;
unicode = (86,118);
},
{
glyphname = W;
lastChange = "2022-12-26 01:22:52 +0000";
layers = (
{
layerId = m01;
shapes = (
{
closed = 1;
nodes = (
(124,-24,o),
(127,-20,o),
(129,-16,c),
(142,22,o),
(148,61,o),
(154,100,cs),
(155,109,o),
(157,117,o),
(159,127,c),
(167,118,o),
(174,110,o),
(182,103,cs),
(194,91,o),
(202,75,o),
(219,68,c),
(222,65,l),
(230,50,o),
(244,40,o),
(257,30,cs),
(265,24,o),
(270,28,o),
(274,33,cs),
(280,40,o),
(284,48,o),
(289,55,cs),
(296,63,o),
(302,72,o),
(308,81,cs),
(319,100,o),
(329,120,o),
(338,139,c),
(344,132,o),
(350,126,o),
(357,121,c),
(357,123,o),
(357,125,o),
(358,127,c),
(366,118,o),
(373,110,o),
(381,103,cs),
(393,91,o),
(459,81,o),
(476,74,c),
(479,71,l),
(487,55,o),
(501,46,o),
(514,36,cs),
(521,30,o),
(527,34,o),
(531,39,cs),
(536,46,o),
(541,53,o),
(546,61,c),
(553,69,o),
(559,78,o),
(565,87,cs),
(577,108,o),
(587,129,o),
(598,151,c),
(601,155,o),
(602,160,o),
(605,165,c),
(604,166,l),
(592,145,o),
(579,125,o),
(567,105,c),
(565,106,l),
(574,163,l),
(568,160,ls),
(552,153,o),
(536,145,o),
(520,139,cs),
(508,134,o),
(495,130,o),
(482,126,cs),
(473,124,o),
(471,129,o),
(474,137,c),
(480,147,l),
(502,175,o),
(471,193,o),
(497,218,cs),
(509,229,o),
(523,238,o),
(531,252,cs),
(539,266,o),
(543,281,o),
(544,297,cs),
(546,313,o),
(546,328,o),
(553,342,cs),
(556,347,o),
(557,352,o),
(557,357,cs),
(556,373,o),
(560,389,o),
(568,402,cs),
(570,405,o),
(571,408,o),
(571,411,cs),
(569,428,o),
(573,445,o),
(582,459,cs),
(587,465,o),
(587,474,o),
(582,480,cs),
(571,496,o),
(560,512,o),
(550,528,cs),
(541,542,o),
(534,557,o),
(525,571,cs),
(517,584,o),
(567,597,o),
(558,609,cs),
(543,628,o),
(528,647,o),
(512,666,cs),
(508,670,o),
(504,670,o),
(502,664,cs),
(498,653,o),
(494,641,o),
(490,630,c),
(484,605,l),
(486,604,l),
(495,609,l),
(497,607,l),
(495,604,o),
(493,600,o),
(490,599,cs),
(482,595,o),
(478,586,o),
(479,577,c),
(492,583,l),
(491,575,o),
(484,551,o),
(476,520,c),
(479,520,o),
(482,519,o),
(481,514,cs),
(475,470,l),
(470,471,o),
(466,474,o),
(464,478,c),
(455,445,o),
(447,412,o),
(443,392,c),
(441,393,l),
(447,430,o),
(448,462,o),
(445,444,cs),
(441,417,o),
(435,391,o),
(434,364,cs),
(432,336,o),
(370,309,o),
(363,282,cs),
(360,272,l),
(358,274,o),
(358,276,o),
(357,278,c),
(355,297,o),
(354,317,o),
(352,336,c),
(353,338,o),
(353,340,o),
(354,342,cs),
(357,347,o),
(358,352,o),
(358,357,cs),
(357,373,o),
(361,389,o),
(369,402,cs),
(371,405,o),
(372,408,o),
(371,411,c),
(370,428,o),
(374,445,o),
(383,459,cs),
(388,465,o),
(388,474,o),
(383,480,cs),
(372,496,o),
(361,512,o),
(351,528,c),
(351,529,o),
(350,529,o),
(350,530,cs),
(352,537,o),
(353,544,o),
(356,550,c),
(362,570,o),
(368,590,o),
(375,610,cs),
(383,637,o),
(392,664,o),
(401,691,cs),
(410,721,l),
(407,720,o),
(404,718,o),
(402,715,c),
(383,695,o),
(365,675,o),
(347,655,cs),
(303,605,l),
(302,606,o),
(302,607,o),
(301,609,c),
(286,628,o),
(271,647,o),
(255,666,cs),
(252,670,o),
(247,670,o),
(245,664,cs),
(241,653,o),
(237,641,o),
(233,630,c),
(227,605,l),
(229,604,l),
(238,609,l),
(240,607,l),
(238,604,o),
(236,600,o),
(233,599,cs),
(225,595,o),
(221,586,o),
(223,577,c),
(235,583,l),
(233,565,o),
(230,550,o),
(228,534,c),
(214,539,l),
(205,489,o),
(195,441,o),
(186,392,c),
(184,393,l),
(190,430,o),
(195,467,o),
(201,505,c),
(199,503,o),
(198,502,o),
(198,500,cs),
(195,481,o),
(191,462,o),
(188,444,cs),
(184,417,o),
(179,391,o),
(177,364,cs),
(175,336,o),
(171,309,o),
(164,282,cs),
(161,272,l),
(159,274,o),
(159,276,o),
(158,278,c),
(154,322,o),
(151,365,o),
(145,409,cs),
(138,456,o),
(142,505,o),
(157,550,cs),
(163,570,o),
(169,590,o),
(176,610,cs),
(184,637,o),
(193,664,o),
(202,691,cs),
(211,721,l),
(208,720,o),
(205,718,o),
(203,715,c),
(184,695,o),
(166,675,o),
(147,655,cs),
(56,549,ls),
(54,547,o),
(53,544,o),
(53,541,cs),
(52,507,o),
(52,472,o),
(51,438,cs),
(51,434,o),
(49,432,o),
(45,432,cs),
(41,432,o),
(37,432,o),
(32,431,c),
(32,429,l),
(50,427,l),
(50,415,o),
(49,403,o),
(48,391,cs),
(46,378,o),
(47,365,o),
(51,353,cs),
(54,344,o),
(61,341,o),
(69,347,cs),
(74,351,o),
(78,355,o),
(82,360,cs),
(91,374,o),
(99,388,o),
(107,401,c),
(117,400,o),
(114,412,o),
(123,416,c),
(118,399,o),
(114,383,o),
(109,368,cs),
(102,346,o),
(93,324,o),
(86,301,cs),
(83,291,o),
(82,282,o),
(81,272,c),
(73,277,o),
(66,282,o),
(58,287,cs),
(36,303,l),
(33,304,o),
(31,305,o),
(28,305,c),
(28,303,o),
(29,301,o),
(31,300,c),
(48,284,o),
(64,267,o),
(82,251,cs),
(90,243,o),
(89,234,o),
(91,223,c),
(81,233,o),
(73,242,o),
(65,250,cs),
(41,277,ls),
(33,286,o),
(24,294,o),
(16,303,c),
(-10,326,l),
(-11,324,l),
(-1,313,o),
(10,302,o),
(21,291,cs),
(27,284,o),
(32,276,o),
(38,270,cs),
(55,251,o),
(73,233,o),
(90,215,c),
(95,212,l),
(92,210,l),
(89,210,l),
(98,184,ls),
(99,180,o),
(100,177,o),
(106,179,cs),
(109,180,o),
(112,179,o),
(114,177,cs),
(118,173,o),
(121,168,o),
(125,163,c),
(125,161,o),
(126,159,o),
(125,157,c),
(124,150,o),
(122,142,o),
(121,135,cs),
(120,131,ls),
(118,126,o),
(117,121,o),
(116,117,cs),
(116,115,o),
(116,113,o),
(115,111,cs),
(112,103,o),
(110,96,o),
(108,88,c),
(108,81,o),
(108,75,o),
(109,68,cs),
(109,64,o),
(108,60,o),
(106,57,c),
(106,56,o),
(100,57,o),
(96,58,c),
(90,54,l),
(78,81,o),
(65,107,o),
(53,133,c),
(49,131,l),
(50,126,o),
(52,120,o),
(55,115,cs),
(65,96,o),
(77,79,o),
(77,57,cs),
(77,53,o),
(78,50,o),
(80,47,c),
(81,43,o),
(83,40,o),
(85,36,cs),
(93,18,o),
(101,0,o),
(110,-18,cs),
(112,-22,o),
(117,-25,o),
(120,-28,c)
);
},
{
closed = 1;
nodes = (
(308,100,l),
(317,157,l),
(315,156,o),
(313,155,o),
(311,154,cs),
(263,133,ls),
(251,128,o),
(238,124,o),
(225,121,cs),
(217,118,o),
(214,123,o),
(218,131,cs),
(219,134,o),
(221,138,o),
(224,141,cs),
(243,165,o),
(265,188,o),
(288,209,c),
(297,184,ls),
(298,180,o),
(299,177,o),
(305,179,cs),
(308,180,o),
(311,179,o),
(313,177,cs),
(317,172,o),
(321,168,o),
(324,163,cs),
(325,161,o),
(325,159,o),
(324,157,c),
(324,156,o),
(324,155,o),
(324,155,c),
(336,142,l),
(311,99,l)
);
},
{
closed = 1;
nodes = (
(292,213,l),
(293,212,o),
(293,212,o),
(294,212,c),
(291,210,l),
(289,210,l)
);
},
{
closed = 1;
nodes = (
(209,473,o),
(206,477,o),
(207,486,cs),
(209,496,o),
(210,507,o),
(212,517,c),
(213,519,o),
(216,520,o),
(217,520,cs),
(221,520,o),
(226,520,o),
(225,514,cs),
(222,500,o),
(220,485,o),
(218,470,c)
);
},
{
closed = 1;
nodes = (
(476,520,l),
(474,520,ls),
(472,520,o),
(466,496,o),
(464,486,cs),
(463,483,o),
(464,481,o),
(464,478,c)
);
}
);
width = 618;
}
);
note = W;
unicode = (87,119);
},
{
glyphname = X;
lastChange = "2022-12-26 01:22:56 +0000";
layers = (
{
layerId = m01;
shapes = (
{
closed = 1;
nodes = (
(248,65,l),
(254,62,l),
(237,25,l),
(243,27,l),
(243,12,l),
(247,16,o),
(250,21,o),
(251,27,cs),
(259,65,o),
(264,103,o),
(285,137,cs),
(290,145,o),
(294,153,o),
(298,162,cs),
(309,191,o),
(337,202,o),
(355,224,c),
(401,198,l),
(400,200,o),
(400,202,o),
(400,203,c),
(398,205,l),
(380,219,l),
(386,220,o),
(394,218,o),
(398,221,cs),
(408,229,o),
(393,234,o),
(395,242,c),
(401,236,o),
(404,228,o),
(410,223,cs),
(419,215,o),
(429,207,o),
(440,201,cs),
(447,196,o),
(451,198,o),
(452,207,cs),
(453,212,o),
(454,217,o),
(456,221,c),
(447,229,o),
(444,242,o),
(450,253,c),
(461,249,l),
(454,259,l),
(466,274,l),
(478,252,l),
(484,249,o),
(490,245,o),
(495,241,c),
(506,228,o),
(516,215,o),
(526,202,cs),
(557,167,o),
(588,131,o),
(620,97,cs),
(644,70,o),
(697,21,o),
(697,21,c),
(728,-7,l),
(743,-9,l),
(744,6,l),
(716,53,l),
(716,53,o),
(612,203,o),
(598,227,cs),
(580,258,o),
(554,283,o),
(530,309,c),
(528,313,o),
(527,318,o),
(528,322,cs),
(531,336,l),
(528,336,l),
(526,334,o),
(524,331,o),
(522,328,c),
(506,344,o),
(507,359,o),
(522,373,cs),
(530,379,o),
(538,386,o),
(545,393,cs),
(551,399,o),
(557,405,o),
(563,412,c),
(560,415,l),
(520,384,l),
(522,391,o),
(522,399,o),
(522,406,c),
(526,411,o),
(530,415,o),
(534,419,cs),
(548,437,l),
(545,440,l),
(518,433,l),
(517,435,o),
(517,438,o),
(517,440,c),
(521,447,o),
(526,454,o),
(531,461,c),
(554,482,l),
(561,479,o),
(569,477,o),
(577,476,cs),
(585,475,o),
(592,473,o),
(599,471,cs),
(614,468,o),
(628,466,o),
(641,478,cs),
(651,488,o),
(652,531,o),
(644,571,c),
(649,577,o),
(653,583,o),
(658,588,c),
(655,592,l),
(650,590,o),
(645,588,o),
(641,585,c),
(638,598,o),
(634,610,o),
(628,622,c),
(630,623,o),
(632,625,o),
(633,626,cs),
(646,639,o),
(657,653,o),
(667,668,cs),
(671,676,o),
(671,686,o),
(674,699,c),
(668,692,o),
(661,684,o),
(654,678,cs),
(641,666,o),
(628,654,o),
(615,642,c),
(608,648,ls),
(597,656,o),
(587,665,o),
(578,675,cs),
(567,686,o),
(568,689,o),
(584,695,c),
(577,705,o),
(531,653,o),
(515,617,c),
(509,620,l),
(515,632,o),
(521,644,o),
(526,656,c),
(520,655,l),
(520,669,l),
(516,665,o),
(514,660,o),
(513,654,cs),
(505,617,o),
(500,578,o),
(479,544,cs),
(474,536,o),
(469,528,o),
(466,519,cs),
(455,491,o),
(427,479,o),
(409,457,c),
(363,483,l),
(363,482,o),
(363,480,o),
(364,478,cs),
(365,476,l),
(384,463,l),
(378,462,o),
(369,463,o),
(365,460,cs),
(355,452,o),
(371,448,o),
(368,439,c),
(362,445,o),
(359,453,o),
(353,459,cs),
(344,467,o),
(334,474,o),
(324,481,cs),
(316,486,o),
(312,484,o),
(312,474,c),
(311,469,o),
(309,465,o),
(308,460,c),
(317,452,o),
(319,439,o),
(314,429,c),
(302,432,l),
(310,422,l),
(297,407,l),
(292,417,o),
(287,425,o),
(285,430,c),
(279,433,o),
(273,436,o),
(268,441,cs),
(257,453,o),
(248,467,o),
(237,479,cs),
(206,515,o),
(176,550,o),
(144,585,cs),
(119,611,o),
(92,635,o),
(66,660,cs),
(57,670,o),
(46,680,o),
(36,688,cs),
(32,691,o),
(25,690,o),
(20,690,c),
(20,685,o),
(18,679,o),
(20,675,cs),
(28,659,o),
(37,643,o),
(48,628,cs),
(66,602,o),
(85,576,o),
(104,551,c),
(107,550,o),
(111,550,o),
(113,548,cs),
(116,545,o),
(117,542,o),
(118,538,c),
(108,532,o),
(117,527,o),
(120,523,cs),
(135,500,o),
(152,478,o),
(165,454,cs),
(183,423,o),
(209,398,o),
(233,372,c),
(235,368,o),
(236,364,o),
(235,359,cs),
(235,355,o),
(234,350,o),
(232,346,c),
(236,345,l),
(242,354,l),
(257,338,o),
(257,322,o),
(241,309,cs),
(233,302,o),
(226,295,o),
(218,288,cs),
(200,270,l),
(203,266,l),
(244,298,l),
(242,290,o),
(241,283,o),
(242,275,c),
(238,271,o),
(234,267,o),
(230,262,cs),
(225,257,o),
(220,250,o),
(216,245,c),
(218,242,l),
(246,248,l),
(246,246,o),
(246,244,o),
(247,242,c),
(243,234,o),
(238,227,o),
(232,221,cs),
(225,213,o),
(217,206,o),
(210,199,c),
(202,202,o),
(194,204,o),
(186,205,cs),
(179,206,o),
(172,209,o),
(164,210,cs),
(150,213,o),
(136,216,o),
(123,203,cs),
(104,185,o),
(83,168,o),
(63,151,cs),
(58,147,o),
(56,142,o),
(61,137,cs),
(85,111,o),
(105,80,o),
(130,55,c),
(118,42,o),
(106,28,o),
(97,13,cs),
(92,6,o),
(93,-5,o),
(90,-18,c),
(96,-10,o),
(102,-3,o),
(109,4,cs),
(122,16,o),
(135,27,o),
(148,39,c),
(155,33,ls),
(166,25,o),
(176,16,o),
(186,6,cs),
(197,-5,o),
(196,-8,o),
(180,-13,c),
(186,-24,o),
(193,-34,o),
(199,-45,c)
);
},
{
closed = 1;
nodes = (
(243,178,o),
(238,180,o),
(236,182,c),
(235,182,l),
(249,193,l),
(250,189,l),
(249,185,o),
(248,181,o),
(245,179,cs)
);
},
{
closed = 1;
nodes = (
(433,220,o),
(422,224,o),
(416,224,c),
(416,229,l),
(437,246,l),
(440,245,l),
(438,237,o),
(438,228,o),
(434,222,cs)
);
},
{
closed = 1;
nodes = (
(323,437,l),
(325,444,o),
(325,453,o),
(329,459,cs),
(331,461,o),
(341,458,o),
(347,457,c),
(347,452,l),
(327,436,l)
);
},
{
closed = 1;
nodes = (
(514,493,ls),
(514,497,o),
(516,500,o),
(519,503,cs),
(520,504,o),
(525,502,o),
(527,500,c),
(528,500,o),
(528,499,o),
(528,499,c),
(514,488,l)
);
}
);
width = 764;
}
);
note = X;
unicode = (88,120);
},
{
glyphname = Y;
lastChange = "2022-12-26 01:22:58 +0000";
layers = (
{
layerId = m01;
shapes = (
{
closed = 1;
nodes = (
(213,-31,o),
(220,-29,o),
(223,-25,cs),
(248,8,o),
(261,47,o),
(273,86,cs),
(276,94,o),
(279,102,o),
(282,112,c),
(287,107,l),
(302,142,o),
(334,168,o),
(360,194,cs),
(396,229,o),
(423,271,o),
(448,315,cs),
(496,399,o),
(524,490,o),
(525,587,c),
(510,604,o),
(494,622,o),
(479,640,c),
(479,639,l),
(473,647,o),
(465,649,o),
(461,644,cs),
(453,634,o),
(445,624,o),
(438,614,c),
(434,606,o),
(430,599,o),
(427,591,c),
(430,588,l),
(446,588,l),
(449,585,l),
(445,584,o),
(442,580,o),
(437,580,cs),
(421,580,o),
(416,574,o),
(417,563,c),
(440,561,l),
(423,513,l),
(400,526,l),
(343,384,l),
(341,385,l),
(375,498,l),
(373,497,o),
(371,496,o),
(370,494,cs),
(363,475,o),
(355,457,o),
(349,439,cs),
(341,412,o),
(330,387,o),
(326,359,cs),
(322,330,o),
(313,303,o),
(300,277,cs),
(298,274,o),
(296,271,o),
(293,268,c),
(291,271,o),
(290,273,o),
(289,277,c),
(284,326,o),
(280,376,o),
(272,426,cs),
(263,483,o),
(271,532,o),
(300,573,cs),
(336,627,ls),
(353,651,o),
(369,675,o),
(386,700,cs),
(392,708,o),
(398,717,o),
(404,726,c),
(399,727,o),
(394,727,o),
(389,725,cs),
(356,714,o),
(322,704,o),
(289,692,cs),
(122,632,ls),
(119,631,o),
(117,628,o),
(117,626,cs),
(114,588,o),
(111,551,o),
(109,514,c),
(108,509,o),
(105,509,o),
(98,511,cs),
(90,514,o),
(83,516,o),
(75,518,c),
(75,516,l),
(106,503,l),
(105,490,o),
(103,478,o),
(100,466,cs),
(96,452,o),
(98,438,o),
(105,422,cs),
(110,410,o),
(122,403,o),
(135,405,cs),
(143,406,o),
(151,408,o),
(159,412,cs),
(175,421,o),
(190,432,o),
(205,441,c),
(223,434,o),
(219,448,o),
(234,448,c),
(224,432,o),
(217,417,o),
(207,404,cs),
(193,384,o),
(176,365,o),
(163,345,cs),
(157,337,o),
(156,326,o),
(153,316,c),
(139,326,o),
(126,336,o),
(114,346,cs),
(75,377,ls),
(71,380,o),
(67,382,o),
(62,384,c),
(62,381,o),
(64,378,o),
(66,377,c),
(153,293,ls),
(167,280,o),
(165,270,o),
(168,257,c),
(123,302,ls),
(110,317,o),
(97,331,o),
(83,345,cs),
(69,360,o),
(54,374,o),
(40,389,c),
(-4,429,l),
(-7,428,l),
(11,409,o),
(30,391,o),
(48,372,cs),
(58,362,o),
(66,350,o),
(77,340,cs),
(106,309,o),
(136,279,o),
(166,249,cs),
(169,246,o),
(171,244,o),
(174,242,c),
(170,242,l),
(164,243,l),
(169,233,o),
(174,222,o),
(178,211,cs),
(180,205,o),
(182,202,o),
(192,201,cs),
(197,200,o),
(202,197,o),
(206,193,cs),
(212,186,o),
(219,179,o),
(224,171,c),
(226,169,o),
(226,167,o),
(225,165,cs),
(222,158,o),
(219,151,o),
(217,144,cs),
(216,142,o),
(215,141,o),
(214,140,c),
(212,135,o),
(210,131,o),
(207,126,c),
(207,124,o),
(206,123,o),
(205,121,cs),
(200,114,o),
(195,107,o),
(192,100,cs),
(190,93,o),
(193,85,o),
(192,78,cs),
(192,73,o),
(190,70,o),
(187,67,cs),
(186,66,o),
(176,71,o),
(169,75,c),
(159,74,l),
(97,182,l),
(89,183,l),
(92,175,o),
(95,168,o),
(99,161,cs),
(115,135,o),
(136,109,o),
(135,85,cs),
(135,81,o),
(137,76,o),
(139,73,cs),
(142,67,o),
(146,62,o),
(149,57,cs),
(162,33,o),
(175,8,o),
(189,-16,cs),
(192,-22,o),
(201,-27,o),
(207,-33,c)
);
},
{
closed = 1;
nodes = (
(389,458,o),
(382,465,o),
(385,473,cs),
(389,483,o),
(392,494,o),
(396,504,c),
(396,505,o),
(402,506,o),
(405,504,c),
(411,502,o),
(419,499,o),
(417,494,cs),
(413,479,o),
(408,465,o),
(403,450,c)
);
}
);
width = 501;
}
);
note = Y;
unicode = (89,121,221,253,255,376);
},
{
glyphname = Z;
lastChange = "2022-12-26 01:22:59 +0000";
layers = (
{
layerId = m01;
shapes = (
{
closed = 1;
nodes = (
(367,54,o),
(378,49,o),
(375,66,c),
(395,69,o),
(414,69,o),
(432,75,cs),
(484,94,o),
(526,127,o),
(564,165,c),
(551,227,o),
(538,294,o),
(525,291,cs),
(498,284,o),
(471,279,o),
(444,273,cs),
(419,268,o),
(395,262,o),
(381,234,c),
(380,238,o),
(376,244,o),
(378,247,cs),
(405,287,o),
(432,328,o),
(460,368,c),
(460,369,o),
(462,369,o),
(464,370,c),
(467,376,o),
(471,382,o),
(476,387,cs),
(488,398,l),
(494,406,o),
(499,413,o),
(505,420,cs),
(507,423,o),
(510,425,o),
(511,427,cs),
(519,445,o),
(532,460,o),
(549,469,c),
(557,479,o),
(564,490,o),
(572,501,c),
(557,498,l),
(557,499,o),
(557,500,o),
(556,501,c),
(578,517,l),
(575,526,l),
(561,523,o),
(547,521,o),
(533,520,cs),
(500,520,o),
(467,521,o),
(433,521,cs),
(353,521,o),
(274,524,o),
(195,538,c),
(204,547,o),
(213,554,o),
(223,561,c),
(241,570,o),
(260,578,o),
(278,586,cs),
(281,587,o),
(283,589,o),
(286,591,cs),
(302,600,o),
(318,610,o),
(335,619,cs),
(348,625,o),
(362,630,o),
(377,634,cs),
(426,648,o),
(432,563,o),
(481,576,cs),
(511,584,o),
(540,591,o),
(576,600,c),
(551,601,o),
(539,627,o),
(532,637,c),
(528,634,o),
(524,609,o),
(519,608,c),
(524,606,l),
(524,604,o),
(523,603,o),
(523,601,c),
(491,606,l),
(487,606,o),
(484,606,o),
(480,606,c),
(480,603,l),
(489,595,l),
(433,587,o),
(421,678,o),
(367,669,cs),
(325,662,o),
(283,656,o),
(242,645,cs),
(193,633,o),
(145,618,o),
(99,600,cs),
(80,592,o),
(62,590,o),
(44,585,c),
(77,536,o),
(96,501,o),
(109,482,cs),
(131,449,o),
(147,411,o),
(183,391,cs),
(221,370,l),
(229,367,o),
(238,364,o),
(247,362,c),
(255,357,o),
(270,361,o),
(275,356,cs),
(290,340,o),
(278,323,o),
(273,309,c),
(258,341,l),
(254,339,l),
(254,328,l),
(248,334,l),
(236,320,l),
(254,308,o),
(260,284,o),
(248,266,cs),
(245,261,l),
(246,258,o),
(248,255,o),
(249,252,c),
(246,252,o),
(244,251,o),
(241,251,cs),
(240,251,l),
(174,146,l),
(209,127,o),
(243,107,o),
(277,87,c),
(303,78,o),
(330,69,o),
(356,59,cs)
);
},
{
closed = 1;
nodes = (
(217,135,l),
(217,137,o),
(218,138,o),
(218,139,c),
(258,134,l),
(189,156,l),
(269,156,l),
(269,152,l),
(260,146,l),
(314,127,l),
(314,124,l),
(288,126,l),
(301,122,o),
(314,119,o),
(326,113,cs),
(335,109,o),
(344,104,o),
(352,98,c),
(351,95,o),
(349,93,o),
(348,90,c)
);
},
{
closed = 1;
nodes = (
(385,163,o),
(384,164,o),
(384,166,c),
(425,172,l),
(425,166,l),
(385,161,l)
);
},
{
closed = 1;
nodes = (
(22,578,o),
(32,582,o),
(44,585,c),
(41,590,ls),
(30,606,o),
(-2,561,o),
(12,571,cs)
);
},
{
closed = 1;
nodes = (
(570,103,o),
(574,104,o),
(578,104,c),
(577,107,o),
(577,110,o),
(576,113,c),
(573,110,o),
(570,107,o),
(567,103,c)
);
},
{
closed = 1;
nodes = (
(170,545,o),
(153,527,o),
(164,537,c),
(160,532,o),
(157,527,o),
(153,529,c)
);
},
{
closed = 1;
nodes = (
(164,540,l),
(166,540,o),
(167,541,o),
(168,541,c),
(166,539,l)
);
},
{
closed = 1;
nodes = (
(611,65,o),
(621,75,o),
(629,81,c),
(670,97,l),
(671,98,o),
(672,104,o),
(674,110,c),
(693,105,l),
(691,124,o),
(690,124,o),
(676,119,cs),
(666,116,o),
(656,114,o),
(646,113,cs),
(627,110,o),
(608,107,o),
(589,105,cs),
(586,105,o),
(582,104,o),
(578,104,c),
(585,76,o),
(592,58,o),
(599,60,cs)
);
},
{
closed = 1;
nodes = (
(577,115,o),
(579,117,o),
(580,118,c),
(585,119,o),
(591,119,o),
(596,119,cs),
(616,121,o),
(638,120,o),
(657,124,cs),
(665,126,o),
(673,129,o),
(681,131,c),
(647,167,o),
(614,214,o),
(579,179,cs),
(574,174,o),
(569,169,o),
(564,165,c),
(576,113,l)
);
},
{
closed = 1;
nodes = (
(768,123,o),
(780,134,o),
(793,143,c),
(756,147,o),
(727,150,o),
(723,148,cs),
(710,142,o),
(695,136,o),
(681,131,c),
(706,105,o),
(731,86,o),
(756,112,cs)
);
}
);
width = 798;
}
);
note = Z;
unicode = (90,122);
},
